<svg width="236" height="160" viewBox="0 0 236 160" fill="none" xmlns="http://www.w3.org/2000/svg">
<path d="M5.88 63.32C4 63.32 2.56 62.06 2.56 59.96C2.56 57.86 4 56.6 5.88 56.6C7.74 56.6 9.2 57.86 9.2 59.96C9.2 62.06 7.74 63.32 5.88 63.32ZM5.88 55.66C3.22 55.66 1.24 57.44 1.24 59.96C1.24 62.5 3.22 64.28 5.88 64.28C8.52 64.28 10.48 62.5 10.48 59.96C10.48 57.44 8.52 55.66 5.88 55.66ZM16.54 60.26L15.06 60.32V53.84L15.1 52.82C15.1 52.64 15.04 52.5 14.88 52.44C14.34 52.24 13.14 51.98 12.46 51.96C12.32 51.96 12.26 51.98 12.24 52.06L12.12 52.48C12.82 52.72 13.46 53.06 13.84 53.48V67.64C13.84 68.5 13.86 70.28 13.92 71.14H14.64C14.9 70.04 15.06 68.3 15.06 67.18V61.06L18.62 61.02C18.72 61.02 18.86 60.98 18.96 60.94C19.08 60.86 19.2 60.62 19.2 60.3C19.2 60.16 19.08 60.04 18.94 59.98C18.56 59.9 17.76 59.86 17.18 59.88L16.54 60.26ZM35.0764 62.52C33.6964 62.6 23.3364 62.74 22.1364 62.72C21.5364 62.72 20.6364 62.64 19.9964 62.52L19.8564 62.78C19.8364 62.86 19.8564 62.9 19.9164 62.94C20.3964 63.32 21.0964 63.7 21.8164 63.92C22.2764 63.76 23.2564 63.56 23.7564 63.52C24.1964 63.5 26.1964 63.46 28.4364 63.44V67.54C28.4364 68.48 28.4764 70.18 28.5164 71.08H29.2564C29.4964 70.02 29.6564 68.16 29.6564 67.14V63.42C32.2564 63.38 34.8564 63.36 35.5364 63.36C36.1364 63.36 37.2764 63.4 37.7964 63.46C37.9764 63.38 38.1964 63.12 38.1964 62.8C38.1964 62.66 38.0964 62.54 37.9364 62.5C37.4964 62.36 36.4764 62.24 35.7764 62.22L35.0764 62.52ZM24.3564 59.62C24.3764 59.98 24.4564 60.4 24.5364 60.68H25.2364C25.3564 60.46 25.4164 60.22 25.4564 59.9L33.9564 59.82C34.0764 59.74 34.1764 59.52 34.1764 59.28C34.1764 59.2 34.1564 59.12 34.0564 59.08L33.6364 58.94C33.9164 57.48 34.1164 55.82 34.1964 54.42L34.4364 53.8C34.4964 53.7 34.4964 53.62 34.3964 53.56C34.2364 53.46 33.8164 53.22 33.5764 53.12C33.4764 53.08 33.3564 53.08 33.2764 53.12L32.6364 53.48C30.8764 53.54 27.1164 53.56 25.3564 53.56C24.7964 53.46 23.6564 53.38 23.0964 53.38C22.9564 53.38 22.9164 53.4 22.8964 53.46L22.8164 53.88C23.2764 54 23.7564 54.26 23.9964 54.48L24.3564 59.62ZM25.3764 54.32C27.6564 54.28 30.5164 54.26 32.8364 54.26L32.6364 58.94L32.2764 59.04C30.7964 59.1 27.3964 59.16 25.4764 59.14L25.3764 54.32ZM51.7528 52.48C52.4728 52.72 53.1128 53.06 53.4728 53.48V63.62C50.6728 64.42 46.1728 64.96 43.5728 64.98C43.2728 64.98 43.1928 64.86 43.1928 64.62V60.54L49.4728 60.36C49.5328 60.28 49.6328 60.1 49.6328 59.9C49.6328 59.82 49.5928 59.78 49.5328 59.74L49.1528 59.54C49.3328 58.66 49.5528 56.84 49.5728 55.84L49.7928 55.34C49.8328 55.24 49.8328 55.16 49.7528 55.1C49.6128 55 49.2328 54.76 49.0328 54.66C48.9528 54.62 48.8128 54.62 48.7128 54.66L48.1728 54.94C47.1328 55.02 43.4128 55.12 42.6328 55.1C42.1528 55.1 41.4528 55.06 40.9528 54.96L40.8328 55.18C40.8128 55.26 40.8128 55.32 40.8928 55.38C41.3128 55.66 41.8128 55.96 42.3928 56.16C42.8328 56.02 43.5128 55.88 43.8728 55.86C44.4528 55.8 47.2928 55.72 48.1728 55.74C48.2128 56.52 48.1928 58.72 48.1128 59.52L47.7928 59.62C47.1728 59.68 44.4128 59.74 43.2128 59.76C42.6928 59.7 41.5128 59.68 40.9928 59.68C40.8728 59.68 40.8128 59.72 40.7928 59.78L40.7128 60.16C41.1928 60.24 41.6328 60.42 41.9128 60.64V64.28C41.9128 64.66 41.9528 64.98 42.0128 65.14C42.1928 65.7 42.5928 66.06 43.1928 66.06C43.3728 66.06 43.5728 66.06 43.8128 66.04C46.5328 65.88 50.5528 65.22 53.4728 64.32V67.64C53.4728 68.5 53.5128 70.28 53.5528 71.14H54.2928C54.5328 70.04 54.6928 68.3 54.6928 67.18V53.84L54.7528 52.82C54.7528 52.64 54.6928 52.5 54.5128 52.44C53.9728 52.24 52.7728 51.98 52.0928 51.96C51.9528 51.96 51.9128 51.98 51.8928 52.06L51.7528 52.48ZM78.8655 61.02C78.2655 61.06 75.9855 61.12 73.4855 61.14V58.92L78.2855 58.84C78.3655 58.84 78.4255 58.82 78.5055 58.76C78.5655 58.68 78.6655 58.48 78.6655 58.2C78.6655 58.06 78.5655 57.98 78.4455 57.96C78.0455 57.9 77.1855 57.84 76.6055 57.84L76.0255 58.16C74.8455 58.24 70.8055 58.3 69.4655 58.28C69.1255 58.28 69.0055 58.16 69.0055 57.8V54.26L77.9855 54.16C78.1055 54.16 78.1855 54.14 78.2655 54.04C78.3455 53.96 78.4455 53.74 78.4455 53.46C78.4455 53.34 78.3455 53.24 78.2055 53.2C77.7655 53.14 76.9455 53.1 76.4255 53.12L75.8255 53.38C74.7655 53.44 70.5655 53.5 69.0455 53.48C68.5455 53.38 67.3255 53.32 66.7855 53.32C66.6655 53.32 66.6055 53.36 66.5855 53.42L66.5055 53.84C66.9855 53.94 67.4455 54.14 67.7455 54.38V57.48C67.7455 58.52 68.2055 59 69.4655 58.98L72.2655 58.94V61.16C69.3655 61.2 66.5255 61.22 65.9255 61.22C65.3255 61.22 64.4255 61.14 63.7855 61.02L63.6455 61.3C63.6255 61.36 63.6455 61.4 63.7055 61.46C64.1855 61.84 64.8855 62.2 65.6055 62.42C66.0655 62.26 67.0455 62.06 67.5455 62.02C68.5655 61.96 77.9255 61.84 79.3255 61.86C79.9255 61.86 81.0655 61.9 81.5855 61.96C81.7655 61.88 81.9855 61.62 81.9855 61.32C81.9855 61.16 81.8855 61.06 81.7255 61.02C81.2855 60.86 80.2655 60.76 79.5655 60.74L78.8655 61.02ZM76.5855 69.84C75.3655 69.88 71.3455 69.9 69.7655 69.88C69.5255 69.88 69.4055 69.78 69.4055 69.54V67.46L77.6855 67.36C77.7655 67.3 77.8455 67.12 77.8455 66.94C77.8455 66.88 77.8255 66.82 77.7455 66.78L77.3855 66.6C77.5455 66.12 77.7455 65.1 77.7855 64.52L78.0055 64.1C78.0455 64 78.0455 63.92 77.9655 63.86C77.8255 63.74 77.4455 63.56 77.2855 63.48C77.1655 63.44 77.0455 63.44 76.9655 63.48L76.4255 63.74C75.1055 63.8 69.8255 63.86 68.7455 63.86C68.2455 63.86 67.5255 63.8 67.0055 63.7L66.9055 63.88C66.8855 63.96 66.8855 64.02 66.9655 64.08C67.3655 64.36 67.9055 64.66 68.5055 64.84C68.9655 64.68 69.7055 64.56 70.0655 64.54C70.9255 64.5 75.1255 64.44 76.3855 64.46C76.4055 64.94 76.3855 66.1 76.3255 66.58L76.0255 66.68C75.2455 66.72 71.0655 66.76 69.4255 66.78C68.9655 66.72 67.7855 66.68 67.2855 66.68C67.1655 66.68 67.1055 66.72 67.0855 66.78L67.0055 67.12C67.4655 67.2 67.8855 67.36 68.1455 67.58V69.46C68.1455 70.32 68.4655 70.64 69.5255 70.64L78.6655 70.6C78.7455 70.6 78.8455 70.58 78.9055 70.52C78.9655 70.44 79.0855 70.2 79.0855 69.9C79.0855 69.78 78.9855 69.68 78.8655 69.66C78.5055 69.58 77.6855 69.52 77.1855 69.52L76.5855 69.84ZM93.5019 60C93.5019 57.46 91.5819 55.74 88.9819 55.74C86.3619 55.74 84.4019 57.46 84.4019 60C84.4019 62.52 86.3619 64.28 88.9819 64.28C91.5819 64.28 93.5019 62.52 93.5019 60ZM92.2419 60C92.2419 62.08 90.8219 63.3 88.9819 63.3C87.1419 63.3 85.7219 62.08 85.7219 60C85.7219 57.92 87.1419 56.68 88.9819 56.68C90.8219 56.68 92.2419 57.92 92.2419 60ZM98.0819 71.14C98.3219 70.04 98.4819 68.3 98.4819 67.18V53.84L98.5419 52.82C98.5419 52.64 98.4819 52.5 98.3019 52.44C97.7619 52.24 96.5619 51.98 95.8819 51.96C95.7419 51.96 95.7019 51.98 95.6819 52.06L95.5419 52.48C96.2619 52.72 96.9019 53.06 97.2619 53.48V67.64C97.2619 68.5 97.3019 70.28 97.3419 71.14H98.0819ZM118.278 60.44L116.798 60.5V53.84L116.838 52.82C116.838 52.64 116.778 52.5 116.618 52.44C116.078 52.24 114.878 51.98 114.198 51.96C114.058 51.96 113.998 51.98 113.978 52.06L113.858 52.48C114.558 52.72 115.198 53.06 115.578 53.48V63.78C112.778 64.54 108.378 65.06 105.798 65.08C105.518 65.08 105.438 64.98 105.438 64.74V60.64L111.678 60.46C111.738 60.38 111.838 60.2 111.838 60C111.838 59.94 111.798 59.86 111.718 59.82L111.358 59.64C111.538 58.76 111.758 56.96 111.778 55.94L111.998 55.46C112.038 55.34 112.038 55.26 111.958 55.2C111.818 55.1 111.438 54.86 111.238 54.76C111.158 54.72 111.018 54.72 110.918 54.76L110.378 55.06C109.378 55.14 105.638 55.22 104.878 55.2C104.398 55.2 103.698 55.16 103.198 55.06L103.078 55.3C103.058 55.36 103.058 55.42 103.138 55.48C103.538 55.76 104.058 56.06 104.638 56.26C105.078 56.12 105.758 55.98 106.118 55.96C106.678 55.92 109.498 55.86 110.378 55.84C110.418 56.64 110.398 58.82 110.318 59.64L109.998 59.74C109.378 59.8 106.618 59.86 105.458 59.88C104.938 59.82 103.758 59.8 103.238 59.8C103.118 59.8 103.058 59.84 103.038 59.9L102.958 60.26C103.418 60.36 103.858 60.52 104.158 60.74V64.38C104.158 64.76 104.178 65.08 104.238 65.26C104.438 65.82 104.838 66.18 105.418 66.18C105.618 66.18 105.818 66.18 106.058 66.16C108.738 65.98 112.658 65.36 115.578 64.46V67.64C115.578 68.5 115.598 70.28 115.658 71.14H116.378C116.638 70.04 116.798 68.3 116.798 67.18V61.24L120.358 61.18C120.458 61.18 120.598 61.16 120.698 61.12C120.818 61.04 120.938 60.8 120.938 60.46C120.938 60.34 120.818 60.2 120.678 60.16C120.298 60.08 119.498 60.04 118.918 60.06L118.278 60.44ZM136.815 66.68C136.215 66.72 133.895 66.78 131.375 66.8V61.98L136.395 61.9C136.495 61.9 136.575 61.88 136.655 61.82C136.735 61.74 136.815 61.54 136.815 61.24C136.815 61.1 136.735 61.02 136.575 60.98C136.215 60.9 135.315 60.84 134.735 60.84L134.135 61.16C132.875 61.24 128.675 61.3 127.275 61.28C126.935 61.28 126.815 61.16 126.815 60.8V55.64L136.215 55.46C136.315 55.46 136.415 55.44 136.495 55.36C136.575 55.26 136.655 55.04 136.655 54.76C136.655 54.64 136.575 54.52 136.415 54.5C135.995 54.44 135.115 54.4 134.575 54.42L133.975 54.7C132.855 54.76 128.655 54.84 126.835 54.86C126.295 54.76 125.015 54.68 124.435 54.68C124.315 54.68 124.255 54.72 124.235 54.78L124.135 55.2C124.675 55.3 125.195 55.5 125.555 55.74V60.46C125.555 61.56 126.015 62.04 127.195 62.04L130.155 62V66.82C127.275 66.86 124.475 66.88 123.875 66.88C123.275 66.88 122.375 66.8 121.735 66.68L121.595 66.96C121.575 67.02 121.595 67.06 121.655 67.12C122.135 67.5 122.835 67.86 123.555 68.08C124.015 67.92 124.995 67.74 125.495 67.7C126.535 67.64 135.875 67.52 137.275 67.54C137.875 67.54 139.015 67.58 139.535 67.64C139.715 67.56 139.935 67.28 139.935 66.98C139.935 66.82 139.835 66.72 139.675 66.68C139.235 66.52 138.215 66.42 137.515 66.4L136.815 66.68ZM160.487 69L156.967 66.92L157.087 66.76C157.167 66.64 157.227 66.52 157.227 66.34C157.227 66.22 157.167 66.12 157.047 66.02L156.847 65.88C158.467 65.84 160.067 65.82 160.487 65.82C160.947 65.82 161.907 65.84 162.287 65.9C162.447 65.8 162.667 65.54 162.667 65.2C162.667 65.1 162.587 65.02 162.487 64.98C162.107 64.88 161.247 64.78 160.687 64.76L160.067 65.06C159.087 65.12 152.587 65.24 151.687 65.22C151.247 65.22 150.467 65.16 149.927 65.06L149.807 65.3C149.767 65.34 149.787 65.4 149.847 65.46C150.267 65.78 150.887 66.12 151.427 66.3C151.767 66.16 152.487 66.02 152.887 65.98C153.227 65.96 154.367 65.94 155.667 65.9C155.707 65.96 155.767 66 155.807 66.06C155.907 66.18 155.927 66.28 155.807 66.44C154.747 67.98 152.527 69.52 149.727 70.76C149.647 70.8 149.627 70.84 149.667 70.9L149.827 71.1C149.867 71.16 149.887 71.16 149.987 71.14C152.907 70.22 155.067 69.06 156.507 67.46L161.827 70.94C161.967 71.04 162.187 71.14 162.287 71.12C162.467 71.14 162.727 70.94 162.767 70.72C162.787 70.6 162.707 70.44 162.547 70.26C162.307 69.98 161.787 69.48 161.367 69.18L160.487 69ZM156.167 60.44C156.287 59.98 156.387 59.22 156.387 58.66L156.447 54.5L156.487 53.76C156.487 53.6 156.447 53.52 156.287 53.46C155.827 53.26 154.927 53.08 154.327 53.04C154.187 53.04 154.147 53.06 154.127 53.12L153.987 53.56C154.467 53.76 154.927 54.04 155.187 54.34V56.66L149.667 56.72V55.4L149.687 54.58C149.687 54.42 149.647 54.34 149.507 54.3C149.007 54.16 148.047 54.06 147.467 54.06C147.327 54.06 147.267 54.1 147.247 54.14L147.127 54.58C147.627 54.7 148.107 54.94 148.387 55.2L148.507 60.98C148.507 61.32 148.547 61.8 148.647 62.08H149.327C149.447 61.9 149.567 61.64 149.607 61.26C150.987 61.24 155.147 61.2 156.587 61.18C156.667 61.12 156.727 60.9 156.727 60.72C156.727 60.62 156.667 60.56 156.587 60.54L156.167 60.44ZM155.187 57.42V60.44L149.647 60.48L149.667 57.5L155.187 57.42ZM153.347 62.84C153.347 62.86 153.327 62.92 153.367 62.98C153.707 63.36 154.187 63.74 154.587 63.96C154.707 64.02 154.747 64.02 154.907 64.02C155.867 63.94 157.487 63.92 158.667 63.9C158.767 63.9 158.867 63.88 158.907 63.78C158.987 63.64 158.987 63.36 158.947 63.2C158.927 63.1 158.847 63.04 158.687 63.04C157.207 63.02 155.327 62.98 153.487 62.66L153.347 62.84ZM160.327 60.14C160.327 60.88 160.327 62.18 160.407 62.84H161.127C161.407 62.14 161.547 60.92 161.547 59.68V53.84L161.587 52.82C161.587 52.64 161.527 52.5 161.367 52.44C160.807 52.24 159.627 51.98 158.947 51.96C158.807 51.96 158.767 51.98 158.747 52.06L158.607 52.5C159.307 52.72 159.947 53.06 160.327 53.48V60.14ZM170.344 63.18C168.684 63.18 167.384 62.02 167.384 60.04C167.384 58.04 168.684 56.88 170.344 56.88C172.024 56.88 173.324 58.04 173.324 60.04C173.324 62.02 172.024 63.18 170.344 63.18ZM175.664 53.9C176.244 54.08 176.804 54.38 177.084 54.74V59.42C176.424 59.46 175.664 59.48 175.244 59.48C174.984 59.48 174.724 59.46 174.484 59.44C174.224 57.32 172.544 55.94 170.344 55.94C167.924 55.94 166.124 57.6 166.124 60.04C166.124 62.5 167.924 64.14 170.344 64.14C172.724 64.14 174.484 62.54 174.524 60.12C174.684 60.22 174.844 60.3 175.024 60.38C175.324 60.28 175.764 60.18 176.084 60.16C176.304 60.14 176.704 60.12 177.084 60.12V66.38C177.084 67.22 177.104 68.84 177.184 69.66H177.864C178.124 68.64 178.264 67 178.264 65.94V55L178.324 54.16C178.324 53.98 178.264 53.88 178.104 53.82C177.644 53.6 176.604 53.38 176.024 53.36C175.884 53.36 175.824 53.4 175.804 53.48L175.664 53.9ZM178.964 52.48C179.624 52.7 180.224 53.02 180.544 53.42V67.84C180.544 68.68 180.584 70.36 180.624 71.14H181.344C181.604 70.12 181.764 68.46 181.764 67.38V53.74L181.804 52.8C181.824 52.62 181.764 52.5 181.564 52.42C181.084 52.22 179.944 51.98 179.304 51.96C179.184 51.96 179.124 51.98 179.104 52.06L178.964 52.48ZM16.54 100.38L15.24 100.42V93.84L15.28 92.82C15.28 92.64 15.22 92.5 15.06 92.44C14.52 92.24 13.32 91.98 12.66 91.96C12.5 91.96 12.46 91.98 12.44 92.06L12.3 92.5C13.02 92.72 13.64 93.06 14.02 93.48V103.4C12.56 103.88 10.36 104.24 9.04 104.32C8.82 104.32 8.72 104.24 8.72 104V96.62L12.04 96.42C12.12 96.42 12.2 96.4 12.26 96.32C12.34 96.24 12.46 96.02 12.46 95.72C12.46 95.62 12.38 95.52 12.24 95.5C11.92 95.44 11.24 95.42 10.84 95.42L10.38 95.72C10.12 95.78 9.12 95.86 8.74 95.9C8.34 95.82 7.44 95.74 7.04 95.74C6.94 95.74 6.88 95.8 6.86 95.86L6.76 96.2C7.08 96.32 7.36 96.52 7.5 96.74V103.4C6.38 103.86 4.66 104.3 3.62 104.4C3.4 104.42 3.32 104.34 3.32 104.12V96.76L6.12 96.58C6.2 96.58 6.3 96.56 6.36 96.5C6.44 96.44 6.52 96.2 6.52 95.96C6.52 95.84 6.46 95.76 6.34 95.74C6.08 95.68 5.52 95.66 5.18 95.66L4.82 95.88C4.6 95.94 3.72 96.02 3.34 96.04C2.9 95.94 1.86 95.88 1.4 95.88C1.26 95.88 1.22 95.92 1.18 95.98L1.1 96.34C1.48 96.46 1.86 96.66 2.1 96.88V103.94C2.1 104.28 2.12 104.56 2.18 104.72C2.32 105.24 2.66 105.54 3.22 105.54C3.36 105.54 3.56 105.52 3.78 105.48C4.92 105.26 6.42 104.72 7.52 104.08C7.54 104.28 7.56 104.44 7.6 104.54C7.76 105.08 8.12 105.4 8.68 105.4C8.86 105.4 9.08 105.4 9.28 105.36C10.66 105.18 12.58 104.7 14.02 104.08V107.8C14.02 108.66 14.04 110.42 14.1 111.32H14.82C15.08 110.22 15.24 108.46 15.24 107.34V101.18L18.62 101.14C18.72 101.14 18.86 101.1 18.96 101.06C19.08 100.98 19.2 100.74 19.2 100.42C19.2 100.28 19.08 100.16 18.94 100.1C18.56 100.02 17.76 99.98 17.18 100L16.54 100.38ZM35.8564 100.44L34.3764 100.5V93.84L34.4164 92.82C34.4164 92.64 34.3564 92.5 34.1964 92.44C33.6564 92.24 32.4564 91.98 31.7764 91.96C31.6364 91.96 31.5764 91.98 31.5564 92.06L31.4364 92.48C32.1364 92.72 32.7764 93.06 33.1564 93.48V103.78C30.3564 104.54 25.9564 105.06 23.3764 105.08C23.0964 105.08 23.0164 104.98 23.0164 104.74V100.64L29.2564 100.46C29.3164 100.38 29.4164 100.2 29.4164 100C29.4164 99.94 29.3764 99.86 29.2964 99.82L28.9364 99.64C29.1164 98.76 29.3364 96.96 29.3564 95.94L29.5764 95.46C29.6164 95.34 29.6164 95.26 29.5364 95.2C29.3964 95.1 29.0164 94.86 28.8164 94.76C28.7364 94.72 28.5964 94.72 28.4964 94.76L27.9564 95.06C26.9564 95.14 23.2164 95.22 22.4564 95.2C21.9764 95.2 21.2764 95.16 20.7764 95.06L20.6564 95.3C20.6364 95.36 20.6364 95.42 20.7164 95.48C21.1164 95.76 21.6364 96.06 22.2164 96.26C22.6564 96.12 23.3364 95.98 23.6964 95.96C24.2564 95.92 27.0764 95.86 27.9564 95.84C27.9964 96.64 27.9764 98.82 27.8964 99.64L27.5764 99.74C26.9564 99.8 24.1964 99.86 23.0364 99.88C22.5164 99.82 21.3364 99.8 20.8164 99.8C20.6964 99.8 20.6364 99.84 20.6164 99.9L20.5364 100.26C20.9964 100.36 21.4364 100.52 21.7364 100.74V104.38C21.7364 104.76 21.7564 105.08 21.8164 105.26C22.0164 105.82 22.4164 106.18 22.9964 106.18C23.1964 106.18 23.3964 106.18 23.6364 106.16C26.3164 105.98 30.2364 105.36 33.1564 104.46V107.64C33.1564 108.5 33.1764 110.28 33.2364 111.14H33.9564C34.2164 110.04 34.3764 108.3 34.3764 107.18V101.24L37.9364 101.18C38.0364 101.18 38.1764 101.16 38.2764 101.12C38.3964 101.04 38.5164 100.8 38.5164 100.46C38.5164 100.34 38.3964 100.2 38.2564 100.16C37.8764 100.08 37.0764 100.04 36.4964 100.06L35.8564 100.44ZM59.5491 106.66C58.9491 106.7 56.6491 106.74 54.1291 106.78V101.74L58.5491 101.7C58.6691 101.6 58.7691 101.38 58.7691 101.16C58.7691 101.06 58.7291 100.98 58.6491 100.96L58.2291 100.82C58.4891 99.12 58.7091 97.14 58.7891 95.48L59.0291 94.86C59.0691 94.78 59.0691 94.68 58.9891 94.62C58.8091 94.52 58.3891 94.28 58.1491 94.18C58.0691 94.14 57.9491 94.14 57.8491 94.18L57.2491 94.54C55.4291 94.62 51.3891 94.64 49.5091 94.64C48.9691 94.54 47.8291 94.44 47.2491 94.44C47.1291 94.44 47.0891 94.46 47.0691 94.54L46.9691 94.94C47.4491 95.08 47.9291 95.32 48.1691 95.56L48.5291 101.46C48.5491 101.82 48.6091 102.24 48.7091 102.52H49.4091C49.5291 102.3 49.5891 102.06 49.6291 101.78L52.9091 101.76V106.8C50.0291 106.84 47.2091 106.86 46.6091 106.86C46.0091 106.86 45.1091 106.78 44.4691 106.66L44.3291 106.92C44.3091 106.98 44.3291 107.04 44.3891 107.08C44.8691 107.46 45.5691 107.84 46.2891 108.04C46.7491 107.88 47.7291 107.7 48.2291 107.66C49.2691 107.6 58.6091 107.48 60.0091 107.5C60.6091 107.5 61.7491 107.54 62.2691 107.6C62.4491 107.52 62.6691 107.24 62.6691 106.94C62.6691 106.78 62.5691 106.68 62.4091 106.64C61.9691 106.5 60.9491 106.38 60.2491 106.36L59.5491 106.66ZM49.5291 95.4C51.9091 95.36 54.9491 95.32 57.4091 95.34L57.2491 100.8L56.8491 100.92C55.2691 100.98 51.6691 101.04 49.6691 101.02L49.5291 95.4ZM78.8655 102.1C77.4855 102.18 67.1255 102.32 65.9255 102.3C65.3255 102.3 64.4255 102.22 63.7855 102.1L63.6455 102.36C63.6255 102.42 63.6455 102.48 63.7055 102.52C64.1855 102.9 64.8855 103.28 65.6055 103.48C66.0655 103.32 67.0455 103.14 67.5455 103.1C68.5855 103.04 77.9255 102.92 79.3255 102.94C79.9255 102.94 81.0655 102.98 81.5855 103.04C81.7655 102.96 81.9855 102.7 81.9855 102.38C81.9855 102.24 81.8855 102.12 81.7255 102.08C81.2855 101.94 80.2655 101.82 79.5655 101.8L78.8655 102.1ZM76.3655 109.56C75.1655 109.62 71.3255 109.64 69.9655 109.62C69.5855 109.62 69.4655 109.46 69.4655 109.1V106.56L69.5055 105.7C69.5055 105.48 69.4055 105.38 69.2255 105.34C68.7455 105.22 67.6655 105.16 67.0655 105.16C66.9255 105.16 66.8855 105.18 66.8655 105.28L66.7855 105.68C67.3255 105.78 67.8655 106 68.2055 106.24V108.88C68.2055 109.94 68.6055 110.38 69.8655 110.38L78.5855 110.34C78.6855 110.34 78.7655 110.32 78.8255 110.24C78.9255 110.16 79.0455 109.94 79.0455 109.62C79.0455 109.48 78.9255 109.4 78.8055 109.38C78.4255 109.3 77.5455 109.22 76.9655 109.24L76.3655 109.56ZM67.7255 98.48C67.7255 99.52 68.2055 100 69.4455 99.98L78.2655 99.84C78.3655 99.84 78.4255 99.82 78.4855 99.76C78.5655 99.68 78.6455 99.48 78.6455 99.2C78.6455 99.06 78.5655 98.98 78.4255 98.96C78.0455 98.9 77.1655 98.82 76.6055 98.84L76.0255 99.14C74.8455 99.22 70.8055 99.28 69.4655 99.26C69.1255 99.26 69.0055 99.14 69.0055 98.78V94.66L77.9655 94.54C78.0855 94.54 78.1655 94.52 78.2455 94.44C78.3455 94.36 78.4255 94.14 78.4255 93.86C78.4255 93.74 78.3455 93.62 78.1855 93.6C77.7655 93.54 76.9255 93.5 76.4055 93.52L75.8255 93.78C74.7455 93.84 70.6255 93.9 69.0455 93.88C68.5255 93.78 67.3255 93.72 66.7855 93.72C66.6655 93.72 66.6055 93.76 66.5855 93.82L66.4855 94.24C66.9655 94.34 67.4455 94.54 67.7255 94.76V98.48ZM97.3981 98.42C97.3781 98.48 97.3981 98.54 97.4581 98.58C97.8581 98.88 98.3581 99.14 98.9181 99.34C99.2981 99.2 99.8181 99.08 100.198 99.04C100.678 99 101.818 98.98 102.578 99V102C102.578 102.88 102.578 104.32 102.658 105.06H103.378C103.658 104.24 103.798 103 103.798 101.56V93.84L103.838 92.82C103.838 92.64 103.778 92.5 103.618 92.44C103.078 92.24 101.878 91.98 101.198 91.96C101.058 91.96 101.018 91.98 100.998 92.06L100.858 92.5C101.578 92.72 102.198 93.06 102.578 93.48V98.24C101.538 98.28 99.8181 98.34 99.1181 98.34C98.5981 98.34 97.9981 98.3 97.4981 98.22L97.3981 98.42ZM98.7781 94.8C98.8381 94.7 98.8381 94.62 98.7381 94.56C98.5981 94.46 98.1981 94.26 97.9781 94.16C97.8781 94.12 97.7381 94.12 97.6581 94.16L97.0581 94.48C96.0381 94.54 92.0981 94.6 91.3781 94.6C90.8981 94.6 90.2381 94.56 89.7581 94.48L89.6181 94.72C89.5981 94.78 89.6181 94.84 89.6781 94.88C90.0781 95.18 90.6381 95.48 91.1181 95.64C91.4781 95.52 92.1781 95.38 92.5381 95.36C93.0981 95.3 95.9381 95.24 96.9981 95.24C95.6581 98.3 92.7381 101.62 88.8781 104.16C88.8381 104.2 88.8381 104.24 88.8981 104.3L89.0981 104.52C89.1581 104.54 89.2181 104.52 89.2781 104.48C93.5781 102.3 97.2181 98.68 98.4581 95.36L98.7781 94.8ZM102.238 108.08L99.2181 105.74C99.4781 105.38 99.6781 105.02 99.8781 104.64C99.9181 104.54 99.9781 104.38 99.9781 104.22C99.9781 104.08 99.8981 103.94 99.7581 103.84C99.3781 103.6 98.3981 103.24 97.7181 103.12C97.5981 103.1 97.5381 103.12 97.4981 103.18L97.2781 103.54C97.7581 103.78 98.2181 104.16 98.3981 104.48C97.3981 106.56 95.0981 108.86 92.2981 110.56C92.1981 110.62 92.1981 110.68 92.2581 110.76L92.4381 110.94C92.4981 110.98 92.5781 110.98 92.6581 110.92C95.2181 109.74 97.3181 108.18 98.7381 106.38L103.938 110.58C104.078 110.72 104.298 110.86 104.418 110.88C104.598 110.92 104.898 110.76 104.938 110.54C104.978 110.42 104.918 110.24 104.758 110C104.518 109.64 103.978 109.04 103.558 108.62L102.238 108.08ZM117.975 100C117.975 97.46 116.055 95.74 113.455 95.74C110.835 95.74 108.875 97.46 108.875 100C108.875 102.52 110.835 104.28 113.455 104.28C116.055 104.28 117.975 102.52 117.975 100ZM116.715 100C116.715 102.08 115.295 103.3 113.455 103.3C111.615 103.3 110.195 102.08 110.195 100C110.195 97.92 111.615 96.68 113.455 96.68C115.295 96.68 116.715 97.92 116.715 100ZM122.555 111.14C122.795 110.04 122.955 108.3 122.955 107.18V93.84L123.015 92.82C123.015 92.64 122.955 92.5 122.775 92.44C122.235 92.24 121.035 91.98 120.355 91.96C120.215 91.96 120.175 91.98 120.155 92.06L120.015 92.48C120.735 92.72 121.375 93.06 121.735 93.48V107.64C121.735 108.5 121.775 110.28 121.815 111.14H122.555ZM147.907 98.08L146.427 98.14V93.84L146.467 92.82C146.467 92.64 146.407 92.5 146.247 92.44C145.687 92.24 144.507 91.98 143.827 91.96C143.687 91.96 143.647 91.98 143.627 92.06L143.487 92.5C144.187 92.72 144.827 93.06 145.207 93.48V99.32C142.467 100.1 138.087 100.64 135.527 100.68C135.247 100.68 135.167 100.56 135.167 100.34V95.38L141.667 95.16C141.767 95.16 141.867 95.12 141.907 95.06C141.987 94.98 142.067 94.76 142.067 94.48C142.067 94.34 141.987 94.26 141.847 94.24C141.467 94.16 140.687 94.12 140.207 94.12L139.687 94.4C139.007 94.48 136.167 94.58 135.207 94.6C134.667 94.5 133.467 94.42 132.907 94.42C132.787 94.42 132.727 94.46 132.707 94.52L132.627 94.92C133.127 95.02 133.607 95.24 133.887 95.48V99.98C133.887 100.36 133.927 100.68 133.987 100.84C134.167 101.4 134.567 101.74 135.127 101.74C135.327 101.74 135.547 101.74 135.767 101.72C138.427 101.56 142.307 100.9 145.207 100C145.207 100.74 145.207 101.88 145.287 102.5H146.027C146.267 101.8 146.427 100.62 146.427 99.42V98.88L149.987 98.82C150.087 98.82 150.227 98.8 150.327 98.74C150.447 98.68 150.567 98.44 150.567 98.1C150.567 97.98 150.447 97.84 150.307 97.8C149.927 97.72 149.127 97.68 148.547 97.7L147.907 98.08ZM145.087 109.72C143.967 109.78 140.127 109.8 138.647 109.78C138.407 109.78 138.307 109.68 138.307 109.44V107.26L146.087 107.16C146.167 107.1 146.247 106.92 146.247 106.74C146.247 106.68 146.207 106.62 146.147 106.58L145.787 106.4C145.947 105.88 146.147 104.78 146.187 104.14L146.407 103.72C146.447 103.62 146.447 103.54 146.367 103.48C146.207 103.38 145.847 103.18 145.687 103.1C145.567 103.06 145.447 103.06 145.367 103.1L144.807 103.36C143.507 103.42 138.647 103.48 137.587 103.48C137.107 103.48 136.367 103.42 135.847 103.32L135.747 103.52C135.727 103.58 135.727 103.64 135.807 103.7C136.227 103.98 136.747 104.28 137.367 104.48C137.827 104.32 138.567 104.18 138.927 104.16C139.727 104.12 143.607 104.08 144.787 104.08C144.807 104.6 144.787 105.86 144.747 106.38L144.427 106.48C143.687 106.52 139.787 106.56 138.327 106.58C137.867 106.52 136.667 106.48 136.187 106.48C136.047 106.48 135.987 106.52 135.967 106.58L135.907 106.92C136.347 107 136.767 107.16 137.027 107.38V109.34C137.027 110.22 137.367 110.54 138.447 110.54L147.167 110.5C147.247 110.5 147.347 110.48 147.407 110.42C147.467 110.34 147.567 110.1 147.567 109.8C147.567 109.66 147.487 109.58 147.347 109.56C146.987 109.46 146.187 109.42 145.667 109.42L145.087 109.72ZM167.224 100.44L165.744 100.5V93.84L165.784 92.82C165.784 92.64 165.724 92.5 165.564 92.44C165.024 92.24 163.824 91.98 163.144 91.96C163.004 91.96 162.944 91.98 162.924 92.06L162.804 92.48C163.504 92.72 164.144 93.06 164.524 93.48V103.78C161.724 104.54 157.324 105.06 154.744 105.08C154.464 105.08 154.384 104.98 154.384 104.74V100.64L160.624 100.46C160.684 100.38 160.784 100.2 160.784 100C160.784 99.94 160.744 99.86 160.664 99.82L160.304 99.64C160.484 98.76 160.704 96.96 160.724 95.94L160.944 95.46C160.984 95.34 160.984 95.26 160.904 95.2C160.764 95.1 160.384 94.86 160.184 94.76C160.104 94.72 159.964 94.72 159.864 94.76L159.324 95.06C158.324 95.14 154.584 95.22 153.824 95.2C153.344 95.2 152.644 95.16 152.144 95.06L152.024 95.3C152.004 95.36 152.004 95.42 152.084 95.48C152.484 95.76 153.004 96.06 153.584 96.26C154.024 96.12 154.704 95.98 155.064 95.96C155.624 95.92 158.444 95.86 159.324 95.84C159.364 96.64 159.344 98.82 159.264 99.64L158.944 99.74C158.324 99.8 155.564 99.86 154.404 99.88C153.884 99.82 152.704 99.8 152.184 99.8C152.064 99.8 152.004 99.84 151.984 99.9L151.904 100.26C152.364 100.36 152.804 100.52 153.104 100.74V104.38C153.104 104.76 153.124 105.08 153.184 105.26C153.384 105.82 153.784 106.18 154.364 106.18C154.564 106.18 154.764 106.18 155.004 106.16C157.684 105.98 161.604 105.36 164.524 104.46V107.64C164.524 108.5 164.544 110.28 164.604 111.14H165.324C165.584 110.04 165.744 108.3 165.744 107.18V101.24L169.304 101.18C169.404 101.18 169.544 101.16 169.644 101.12C169.764 101.04 169.884 100.8 169.884 100.46C169.884 100.34 169.764 100.2 169.624 100.16C169.244 100.08 168.444 100.04 167.864 100.06L167.224 100.44ZM184.76 109.56C183.62 109.62 179.9 109.64 178.64 109.62C178.28 109.62 178.14 109.46 178.14 109.1V106.04L178.16 105.18C178.16 104.98 178.08 104.88 177.88 104.84C177.42 104.72 176.36 104.66 175.74 104.66C175.64 104.66 175.56 104.68 175.54 104.76L175.46 105.18C176 105.28 176.56 105.48 176.88 105.72V108.86C176.88 109.94 177.3 110.36 178.56 110.38H178.58L187.02 110.32C187.12 110.32 187.18 110.3 187.24 110.24C187.34 110.16 187.44 109.94 187.44 109.62C187.44 109.48 187.34 109.38 187.2 109.36C186.82 109.28 185.96 109.22 185.38 109.22L184.76 109.56ZM181.66 103.02C181.78 103.16 181.96 103.28 182.06 103.3C182.26 103.36 182.54 103.22 182.6 103.02C182.66 102.92 182.62 102.76 182.5 102.56C182.34 102.26 182 101.7 181.7 101.32L180.78 101L178.56 99.1C179.62 97.9 180.46 96.68 180.98 95.48L181.36 94.94C181.42 94.86 181.42 94.78 181.34 94.72C181.18 94.6 180.74 94.4 180.52 94.32C180.42 94.28 180.3 94.28 180.2 94.32L179.6 94.62C178.66 94.68 174.8 94.74 174.08 94.74C173.6 94.74 172.92 94.68 172.44 94.6L172.32 94.82C172.3 94.88 172.32 94.92 172.38 94.98C172.78 95.28 173.32 95.62 173.82 95.8C174.16 95.66 174.86 95.52 175.24 95.5C175.76 95.46 178.44 95.38 179.48 95.38C178.08 98.26 175.24 101.42 171.6 103.82C171.52 103.88 171.54 103.94 171.6 103.98L171.8 104.16C171.84 104.18 171.88 104.18 171.96 104.14C174.24 102.98 176.34 101.42 178 99.7L181.66 103.02ZM184.82 102.84C184.82 103.74 184.82 105.32 184.9 106.14H185.62C185.88 105.18 186.04 103.74 186.04 102.38V93.84L186.08 92.82C186.08 92.64 186.02 92.5 185.86 92.44C185.3 92.24 184.12 91.98 183.44 91.96C183.3 91.96 183.26 91.98 183.24 92.06L183.1 92.5C183.8 92.72 184.44 93.06 184.82 93.48V102.84ZM205.856 100.36L204.376 100.42V93.84L204.416 92.82C204.416 92.64 204.356 92.5 204.196 92.44C203.656 92.24 202.456 91.98 201.776 91.96C201.636 91.96 201.576 91.98 201.556 92.06L201.436 92.48C202.136 92.72 202.776 93.06 203.156 93.48V103.08C200.396 103.9 196.056 104.46 193.476 104.52C193.216 104.54 193.136 104.44 193.136 104.2V96.54L199.576 96.36C199.656 96.36 199.756 96.32 199.796 96.26C199.876 96.16 199.956 95.94 199.956 95.66C199.956 95.54 199.876 95.44 199.736 95.42C199.356 95.34 198.576 95.3 198.116 95.3L197.576 95.6C196.916 95.66 194.176 95.76 193.176 95.76C192.636 95.66 191.356 95.56 190.816 95.56C190.696 95.56 190.636 95.62 190.616 95.68L190.516 96.08C191.036 96.18 191.536 96.38 191.856 96.64V103.86C191.856 104.26 191.876 104.56 191.936 104.74C192.136 105.3 192.536 105.64 193.116 105.64C193.316 105.64 193.516 105.64 193.756 105.62C196.416 105.42 200.276 104.74 203.156 103.78V107.64C203.156 108.5 203.176 110.28 203.236 111.14H203.956C204.216 110.04 204.376 108.3 204.376 107.18V101.18L207.936 101.12C208.036 101.12 208.176 101.1 208.276 101.04C208.396 100.98 208.516 100.74 208.516 100.4C208.516 100.26 208.396 100.14 208.256 100.1C207.876 100.02 207.076 99.98 206.496 100L205.856 100.36ZM211.873 109.26C212.553 109.26 213.073 108.72 213.073 108.1C213.073 107.42 212.553 106.9 211.873 106.9C211.213 106.9 210.693 107.42 210.693 108.1C210.693 108.72 211.213 109.26 211.873 109.26Z" fill="black"/>
<path fill-rule="evenodd" clip-rule="evenodd" d="M4 8.5C4 7.1193 5.1193 6 6.5 6C7.05228 6 7.5 5.55227 7.5 5C7.5 4.44772 7.05228 4 6.5 4C4.01472 4 2 6.01472 2 8.5V11.75V12.5V13.25C2 14.7688 3.23123 16 4.75 16H6.25C7.76877 16 9 14.7688 9 13.25V11.75C9 10.2312 7.76877 9 6.25 9H4.75C4.49 9 4.23843 9.03608 4 9.10353V8.5Z" fill="#C8C8C8"/>
<path fill-rule="evenodd" clip-rule="evenodd" d="M13 8.5C13 7.1193 14.1193 6 15.5 6C16.0523 6 16.5 5.55227 16.5 5C16.5 4.44772 16.0523 4 15.5 4C13.0147 4 11 6.01472 11 8.5V11.75V12.5V13.25C11 14.7688 12.2312 16 13.75 16H15.25C16.7688 16 18 14.7688 18 13.25V11.75C18 10.2312 16.7688 9 15.25 9H13.75C13.49 9 13.2384 9.03608 13 9.10353V8.5Z" fill="#C8C8C8"/>
<path fill-rule="evenodd" clip-rule="evenodd" d="M16 151.5C16 152.881 14.8807 154 13.5 154C12.9477 154 12.5 154.448 12.5 155C12.5 155.552 12.9477 156 13.5 156C15.9853 156 18 153.985 18 151.5L18 148.25L18 147.5L18 146.75C18 145.231 16.7688 144 15.25 144L13.75 144C12.2312 144 11 145.231 11 146.75L11 148.25C11 149.769 12.2312 151 13.75 151L15.25 151C15.51 151 15.7616 150.964 16 150.896L16 151.5Z" fill="#C8C8C8"/>
<path fill-rule="evenodd" clip-rule="evenodd" d="M7 151.5C7 152.881 5.8807 154 4.5 154C3.94772 154 3.5 154.448 3.5 155C3.5 155.552 3.94772 156 4.5 156C6.98528 156 9 153.985 9 151.5L9 148.25L9 147.5L9 146.75C9 145.231 7.76878 144 6.25 144L4.75 144C3.23123 144 2 145.231 2 146.75L2 148.25C2 149.769 3.23123 151 4.75 151L6.25 151C6.51 151 6.76158 150.964 7 150.896L7 151.5Z" fill="#C8C8C8"/>
</svg>
