<svg width="298" height="181" viewBox="0 0 298 181" fill="none" xmlns="http://www.w3.org/2000/svg">
<path d="M54.8538 64.0622C53.4738 64.1422 43.1138 64.2822 41.9138 64.2622C41.3138 64.2622 40.4137 64.1822 39.7738 64.0622L39.6338 64.3222C39.6138 64.4022 39.6338 64.4422 39.6938 64.4822C40.1738 64.8622 40.8738 65.2422 41.5938 65.4422C42.0538 65.2822 43.0338 65.1022 43.5338 65.0622C43.9738 65.0422 46.0138 65.0022 48.2738 64.9622V65.4022C48.2738 65.8422 48.2938 66.4622 48.3338 66.9622C46.7538 66.9822 45.2338 67.0022 44.6938 67.0022C44.1938 67.0022 43.4938 66.9422 42.9738 66.8222L42.8738 67.0222C42.8538 67.0822 42.8538 67.1422 42.9338 67.2022C43.3338 67.5022 43.8738 67.7822 44.4738 67.9622C44.9338 67.8222 45.6538 67.6822 46.0138 67.6622C46.8938 67.6222 51.1538 67.5622 52.4338 67.5822C52.4538 67.9822 52.4338 68.9422 52.3738 69.3822L52.0738 69.4822C51.2938 69.5222 46.9538 69.5622 45.3738 69.5822C44.8938 69.5222 43.7138 69.4822 43.2138 69.4822C43.0938 69.4822 43.0338 69.5222 43.0138 69.5822L42.9338 69.9422C43.3938 70.0022 43.8138 70.1822 44.0738 70.4022V71.8822C44.0738 72.7422 44.3938 73.0622 45.5338 73.0622L54.6738 73.0222C54.7538 73.0222 54.8538 73.0022 54.9138 72.9422C54.9738 72.8622 55.0938 72.6222 55.0938 72.3222C55.0938 72.2022 54.9938 72.1022 54.8738 72.0822C54.5138 72.0222 53.6938 71.9622 53.1738 71.9622L52.5938 72.2622C51.3738 72.3222 47.2338 72.3422 45.6938 72.3222C45.4538 72.3222 45.3538 72.2222 45.3538 71.9822V70.2622L53.7338 70.1622C53.7938 70.1022 53.8938 69.9222 53.8938 69.7422C53.8938 69.6822 53.8538 69.6422 53.7938 69.6022L53.4338 69.4222C53.5938 68.9822 53.7738 68.1422 53.8338 67.6422L54.0538 67.2422C54.0938 67.1222 54.0938 67.0422 54.0138 66.9822C53.8538 66.8822 53.4938 66.7022 53.3138 66.6022C53.2138 66.5622 53.0938 66.5622 53.0138 66.6022L52.4538 66.8822C51.8738 66.9022 50.6338 66.9422 49.2738 66.9622C49.3938 66.4022 49.4938 65.7022 49.4938 65.1622V64.9422C52.0738 64.9222 54.6338 64.9022 55.3138 64.9022C55.9138 64.9022 57.0538 64.9422 57.5738 65.0022C57.7538 64.9222 57.9738 64.6622 57.9738 64.3422C57.9738 64.2022 57.8738 64.0822 57.7138 64.0422C57.2738 63.9022 56.2538 63.7822 55.5538 63.7622L54.8538 64.0622ZM44.5338 60.4622C44.5338 62.1422 46.3738 63.1822 48.7538 63.1822C51.1338 63.1822 52.9738 62.1422 52.9738 60.4622C52.9738 58.7822 51.1338 57.7622 48.7538 57.7622C46.3738 57.7622 44.5338 58.7822 44.5338 60.4622ZM51.7138 60.4622C51.7138 61.7022 50.3937 62.3822 48.7538 62.3822C47.1138 62.3822 45.7938 61.7022 45.7938 60.4622C45.7938 59.2022 47.1138 58.5222 48.7538 58.5222C50.3937 58.5222 51.7138 59.2022 51.7138 60.4622ZM52.8738 56.3422C51.7738 56.4222 44.6538 56.5022 43.7138 56.4822C43.2338 56.4822 42.3738 56.4222 41.7938 56.3022L41.6738 56.5422C41.6538 56.5822 41.6738 56.6422 41.7337 56.7022C42.1738 57.0222 42.8538 57.3622 43.4338 57.5222C43.8138 57.3822 44.5938 57.2222 44.9737 57.2022C45.9538 57.1422 52.2738 57.0622 53.2938 57.0622C53.7538 57.0622 54.7938 57.0822 55.2138 57.1422C55.3538 57.0622 55.5338 56.8222 55.5338 56.5222C55.5338 56.4222 55.4738 56.3422 55.3538 56.3022C54.9738 56.1622 54.0938 56.0422 53.4938 56.0222L52.8738 56.3422ZM45.3738 54.3022C45.3538 54.3422 45.3538 54.3622 45.3938 54.4422C45.7538 54.8622 46.2738 55.2622 46.6938 55.4822C46.8138 55.5422 46.8938 55.5422 47.0538 55.5422C48.0538 55.4622 49.8338 55.4222 51.0738 55.4022C51.1738 55.4022 51.2738 55.3822 51.3338 55.2822C51.4138 55.1422 51.4338 54.8222 51.3738 54.6622C51.3538 54.5422 51.2538 54.4822 51.1138 54.4822C49.5338 54.5022 47.4538 54.4422 45.5138 54.1422L45.3738 54.3022ZM74.1702 63.7222C72.7902 63.8022 62.4302 63.9422 61.2302 63.9222C60.6302 63.9222 59.7302 63.8422 59.0902 63.7222L58.9502 63.9822C58.9302 64.0622 58.9502 64.1022 59.0102 64.1422C59.4902 64.5222 60.1902 64.9022 60.9102 65.1222C61.3702 64.9622 62.3502 64.7822 62.8502 64.7422C63.0902 64.7222 63.7902 64.7022 64.7502 64.6822V65.8622C64.7502 66.3822 64.7702 67.0822 64.8302 67.6422C64.0302 68.2422 63.5702 69.0822 63.5702 70.0822C63.5702 72.1222 65.3902 73.5222 68.0502 73.5222C70.7102 73.5222 72.5302 72.1222 72.5302 70.0822C72.5302 69.1222 72.1102 68.3022 71.3702 67.7222C71.5502 67.1022 71.6702 66.2222 71.6702 65.5622V64.6022C73.0702 64.5822 74.2102 64.5822 74.6302 64.5822C75.2302 64.5822 76.3702 64.6222 76.8902 64.6822C77.0702 64.5822 77.2902 64.3222 77.2902 64.0022C77.2902 63.8622 77.1902 63.7422 77.0302 63.7022C76.5902 63.5622 75.5702 63.4422 74.8702 63.4222L74.1702 63.7222ZM68.0502 72.6422C66.1902 72.6422 64.8702 71.7022 64.8702 70.0822C64.8702 68.4622 66.1902 67.5022 68.0502 67.5022C69.9102 67.5022 71.2502 68.4622 71.2502 70.0822C71.2502 71.7022 69.9102 72.6422 68.0502 72.6422ZM65.9502 64.6622L70.4902 64.6022V65.8022C70.4902 66.2022 70.4902 66.7222 70.5302 67.2022C69.8302 66.9022 68.9902 66.7222 68.0502 66.7222C67.2102 66.7222 66.4502 66.8622 65.8102 67.1022C65.8902 66.6022 65.9502 66.0422 65.9502 65.6022V64.6622ZM62.9702 61.0422C62.9702 61.8822 63.2702 62.2022 64.3102 62.2022L73.5302 62.0622C73.6102 62.0622 73.6702 62.0422 73.7302 61.9822C73.8302 61.9022 73.9302 61.7022 73.9302 61.4022C73.9302 61.2822 73.8502 61.2022 73.7102 61.1822C73.3702 61.1222 72.5302 61.0422 71.9902 61.0622L71.4302 61.3622C70.2502 61.4422 66.2502 61.5222 64.5902 61.5022C64.3302 61.5022 64.2502 61.4022 64.2502 61.1622V59.1222L72.8902 58.9822C72.9702 58.9222 73.0702 58.7622 73.0702 58.5822C73.0702 58.5022 73.0302 58.4622 72.9702 58.4222L72.5702 58.2422C72.7302 57.7422 72.9302 56.7622 72.9702 56.1822L73.1902 55.7422C73.2302 55.6622 73.2302 55.5622 73.1502 55.4822C73.0102 55.3822 72.6502 55.1822 72.4902 55.0822C72.3702 55.0422 72.2502 55.0422 72.1702 55.0822L71.6302 55.3622C70.3902 55.4222 65.0702 55.5222 63.9902 55.5022C63.4702 55.5022 62.6902 55.4422 62.1702 55.3422L62.0502 55.5222C62.0302 55.5822 62.0302 55.6422 62.1102 55.7222C62.5502 56.0222 63.1102 56.3222 63.7502 56.5222C64.2702 56.3822 65.0502 56.2422 65.3902 56.2222C66.2502 56.1622 70.3102 56.0822 71.5702 56.1022C71.5902 56.5822 71.5702 57.7622 71.4902 58.2422L71.1902 58.3222C70.3502 58.3822 65.8102 58.4422 64.2902 58.4622C63.8102 58.3822 62.6102 58.3422 62.1102 58.3422C61.9702 58.3422 61.9102 58.4022 61.8902 58.4622L61.8302 58.8022C62.2902 58.8622 62.6902 59.0422 62.9702 59.2622V61.0422ZM94.2666 61.9422L92.7866 62.0022V56.0622L92.8266 55.0422C92.8266 54.8622 92.7666 54.7222 92.6066 54.6622C92.0666 54.4622 90.8666 54.2022 90.1866 54.1822C90.0466 54.1822 90.0066 54.2022 89.9866 54.2822L89.8466 54.7222C90.5666 54.9422 91.1866 55.2822 91.5666 55.7022V65.4222C91.5666 66.3222 91.5666 67.9022 91.6466 68.7222H92.3666C92.6266 67.7622 92.7866 66.3222 92.7866 64.9622V62.7422L96.3466 62.6822C96.4466 62.6822 96.5866 62.6622 96.6866 62.6222C96.8066 62.5422 96.9266 62.3022 96.9266 61.9622C96.9266 61.8422 96.8066 61.7022 96.6666 61.6622C96.2866 61.5822 95.4866 61.5422 94.9066 61.5622L94.2666 61.9422ZM91.7266 71.9222C90.5866 71.9822 86.8666 72.0022 85.5666 71.9822C85.2066 71.9822 85.0666 71.8422 85.0666 71.4822V69.4222L85.0866 68.5822C85.0866 68.3622 84.9866 68.2622 84.8066 68.2222C84.3466 68.1222 83.2666 68.0422 82.6666 68.0422C82.5466 68.0422 82.4866 68.0822 82.4666 68.1622L82.3866 68.5622C82.9266 68.6822 83.4666 68.8622 83.7866 69.1222V71.2422C83.7866 72.3222 84.2266 72.7422 85.4666 72.7422L93.9866 72.7022C94.0866 72.7022 94.1466 72.6822 94.2066 72.6222C94.3066 72.5222 94.4066 72.3222 94.4066 71.9822C94.4066 71.8622 94.3066 71.7622 94.1666 71.7422C93.8066 71.6622 92.9266 71.6022 92.3466 71.6022L91.7266 71.9222ZM88.4466 63.4022C88.4466 61.4222 86.6066 60.1222 84.3666 60.1222C82.0866 60.1222 80.2466 61.4222 80.2466 63.4022C80.2466 65.3822 82.0866 66.7022 84.3666 66.7022C86.6066 66.7022 88.4466 65.4022 88.4466 63.4022ZM81.4866 63.4022C81.4866 61.8622 82.7866 60.9622 84.3666 60.9622C85.9266 60.9622 87.2466 61.8622 87.2466 63.4022C87.2466 64.9422 85.9266 65.8222 84.3666 65.8222C82.7866 65.8222 81.4866 64.9422 81.4866 63.4022ZM87.5266 58.3622C86.6066 58.4222 80.9666 58.5222 80.1066 58.5022C79.6666 58.5022 78.8866 58.4622 78.3466 58.3422L78.2266 58.5822C78.2066 58.6222 78.2266 58.6822 78.2866 58.7422C78.6866 59.0622 79.3266 59.4022 79.8466 59.5822C80.2066 59.4422 80.9266 59.3022 81.3066 59.2822C82.0666 59.2222 87.1266 59.1422 87.9266 59.1422C88.3866 59.1422 89.3266 59.1622 89.7266 59.2222C89.8666 59.1222 90.1266 58.8622 90.1266 58.5622C90.1266 58.4422 90.0266 58.3622 89.9066 58.3222C89.5466 58.2022 88.7066 58.0822 88.1266 58.0622L87.5266 58.3622ZM81.2466 55.6022C81.2266 55.6622 81.2266 55.7022 81.2666 55.7622C81.6066 56.1822 82.0866 56.6022 82.4866 56.8022C82.5866 56.8822 82.6666 56.8822 82.8066 56.8622C83.7066 56.8022 85.2266 56.7622 86.2866 56.7622C86.4066 56.7622 86.4866 56.7422 86.5466 56.6422C86.6266 56.5022 86.6466 56.1822 86.5866 56.0022C86.5666 55.9022 86.4866 55.8422 86.3466 55.8422C84.9266 55.8222 83.1666 55.7822 81.3866 55.4622L81.2466 55.6022ZM117.959 69.0422C117.359 69.0822 115.059 69.1222 112.559 69.1622L112.639 65.6622L112.739 64.8422C112.739 64.7222 112.699 64.6022 112.539 64.5622C112.039 64.4022 111.019 64.3022 110.399 64.2822C110.279 64.2822 110.239 64.3222 110.219 64.3622L110.099 64.7822C110.619 64.9222 111.119 65.1822 111.399 65.4622V69.1822C108.499 69.2222 105.619 69.2422 105.019 69.2422C104.419 69.2422 103.519 69.1622 102.879 69.0422L102.739 69.3022C102.719 69.3622 102.739 69.4222 102.799 69.4622C103.279 69.8422 103.979 70.2222 104.699 70.4222C105.159 70.2622 106.139 70.0822 106.639 70.0422C107.679 69.9822 117.019 69.8622 118.419 69.8822C119.019 69.8822 120.159 69.9222 120.679 69.9822C120.859 69.9022 121.079 69.6222 121.079 69.3222C121.079 69.1622 120.979 69.0622 120.819 69.0222C120.379 68.8822 119.359 68.7622 118.659 68.7422L117.959 69.0422ZM104.319 65.1422C104.339 65.1822 104.399 65.1822 104.479 65.1622C107.139 64.2822 109.699 63.0822 111.899 61.6622L118.379 64.1822C118.559 64.2622 118.779 64.3222 118.899 64.3022C119.119 64.2622 119.339 64.0422 119.319 63.8422C119.319 63.7022 119.219 63.5622 118.999 63.4022C118.699 63.1622 118.039 62.7622 117.539 62.5222L116.259 62.4222L112.699 61.1422C114.279 60.0422 115.659 58.8422 116.679 57.5822L117.139 57.0822C117.239 57.0022 117.239 56.9022 117.119 56.8422C116.939 56.7422 116.459 56.5422 116.199 56.4622C116.099 56.4222 115.959 56.4222 115.859 56.4622L115.059 56.8022C113.979 56.8622 108.339 56.9222 107.299 56.9222C106.759 56.9222 105.979 56.8622 105.399 56.7422L105.259 57.0222C105.239 57.0622 105.259 57.1222 105.319 57.1822C105.799 57.5222 106.439 57.8222 107.019 58.0022C107.419 57.8622 108.219 57.6822 108.619 57.6622C109.419 57.6022 113.319 57.5422 114.859 57.5622C112.579 60.2422 108.739 62.7822 104.159 64.7422C104.079 64.7822 104.079 64.8422 104.119 64.9022L104.319 65.1422ZM134.816 54.7222C135.516 54.9422 136.156 55.2822 136.536 55.7022V58.0022C135.636 58.0422 134.156 58.0822 133.496 58.0822C133.096 58.0822 132.676 58.0622 132.276 58.0222L132.296 57.6022L132.556 57.0022C132.596 56.9022 132.576 56.8422 132.516 56.7822C132.336 56.6422 131.916 56.4022 131.696 56.3022C131.616 56.2622 131.476 56.2622 131.396 56.3022L130.776 56.6822C129.456 56.7622 126.756 56.7822 125.416 56.7822C124.896 56.6822 123.816 56.6022 123.256 56.6022C123.116 56.6022 123.076 56.6222 123.056 56.6822L122.976 57.0822C123.376 57.2022 123.796 57.4422 124.016 57.6622L124.476 64.0422C124.496 64.4022 124.536 64.8022 124.616 65.1022H125.296C125.416 64.8622 125.496 64.6022 125.516 64.2622L132.116 64.1822C132.216 64.0822 132.316 63.8822 132.316 63.6222C132.316 63.5422 132.276 63.4622 132.196 63.4222L131.856 63.2822C132.036 61.8022 132.196 60.1022 132.256 58.5622C132.556 58.7422 132.916 58.9222 133.276 59.0622C133.656 58.9222 134.156 58.8022 134.516 58.7622C134.936 58.7222 135.896 58.7222 136.536 58.7622V61.6422C135.636 61.7022 134.416 61.7222 133.836 61.7222C133.336 61.7222 132.796 61.6822 132.316 61.6222L132.236 61.8022C132.196 61.8622 132.216 61.9222 132.276 61.9822C132.636 62.2622 133.116 62.5022 133.616 62.6822C133.996 62.5622 134.496 62.4422 134.876 62.4022C135.216 62.3622 135.936 62.3622 136.536 62.3822V63.4622C136.536 64.2022 136.536 65.6822 136.616 66.4222H137.336C137.596 65.5422 137.756 64.0422 137.756 63.0422V56.0622L137.796 55.0422C137.796 54.8622 137.736 54.7222 137.576 54.6622C137.016 54.4622 135.836 54.2022 135.156 54.1822C135.016 54.1822 134.976 54.2022 134.936 54.2822L134.816 54.7222ZM125.396 57.5422C127.116 57.4822 129.216 57.4622 130.956 57.4622L130.876 63.3222L130.536 63.4222C129.396 63.4822 126.976 63.5222 125.536 63.5222L125.396 57.5422ZM133.316 65.8622C130.816 65.8622 129.096 67.3022 129.096 69.4622C129.096 71.7022 130.816 73.1822 133.316 73.1822C135.816 73.1822 137.556 71.7022 137.556 69.4622C137.556 67.3022 135.816 65.8622 133.316 65.8622ZM133.316 72.2422C131.616 72.2422 130.396 71.2222 130.396 69.4622C130.396 67.7022 131.616 66.6622 133.316 66.6622C135.036 66.6622 136.256 67.7022 136.256 69.4622C136.256 71.2222 135.036 72.2422 133.316 72.2422ZM156.592 63.2022C155.212 63.3022 144.852 63.4222 143.652 63.4022C143.052 63.4022 142.152 63.3222 141.512 63.2022L141.372 63.4822C141.352 63.5422 141.372 63.5822 141.432 63.6422C141.912 64.0222 142.612 64.3822 143.332 64.5822C143.792 64.4222 144.772 64.2422 145.272 64.2022C146.292 64.1422 155.652 64.0222 157.052 64.0422C157.652 64.0422 158.792 64.0822 159.312 64.1422C159.492 64.0622 159.712 63.8022 159.712 63.5022C159.712 63.3422 159.612 63.2422 159.452 63.2022C159.012 63.0422 157.992 62.9422 157.292 62.9222L156.592 63.2022ZM154.352 72.0822C153.112 72.1422 149.012 72.1622 147.392 72.1422C147.152 72.1422 147.052 72.0422 147.052 71.8022V69.7022L155.452 69.6022C155.512 69.5422 155.612 69.3622 155.612 69.1822C155.612 69.1222 155.572 69.0622 155.512 69.0222L155.152 68.8422C155.312 68.3822 155.512 67.3622 155.552 66.7622L155.772 66.3422C155.812 66.2222 155.812 66.1422 155.732 66.0822C155.572 65.9822 155.212 65.7822 155.032 65.7022C154.932 65.6622 154.812 65.6622 154.732 65.7022L154.172 65.9822C152.852 66.0222 147.512 66.0822 146.432 66.0822C145.932 66.0822 145.212 66.0222 144.712 65.9222L144.592 66.1222C144.572 66.1822 144.572 66.2422 144.652 66.3022C145.072 66.5822 145.612 66.8822 146.192 67.0622C146.672 66.9222 147.392 66.7822 147.752 66.7622C148.612 66.7222 152.912 66.6622 154.152 66.6822C154.172 67.1622 154.152 68.3422 154.092 68.8222L153.772 68.9222C153.012 68.9622 148.632 69.0222 147.092 69.0222C146.592 68.9622 145.412 68.9222 144.912 68.9222C144.792 68.9222 144.732 68.9622 144.712 69.0222L144.652 69.3622C145.092 69.4422 145.512 69.6022 145.772 69.8422V71.7022C145.772 72.5622 146.092 72.9022 147.152 72.9022L156.412 72.8622C156.512 72.8622 156.592 72.8422 156.652 72.7622C156.732 72.7022 156.852 72.4622 156.852 72.1622C156.852 72.0222 156.752 71.9422 156.612 71.9222C156.272 71.8422 155.452 71.7822 154.932 71.7822L154.352 72.0822ZM150.492 61.8422C153.052 61.8422 155.072 60.4822 155.072 58.3822C155.072 56.3022 153.052 54.9222 150.492 54.9222C147.932 54.9222 145.912 56.3022 145.912 58.3822C145.912 60.4822 147.932 61.8422 150.492 61.8422ZM150.492 55.7822C152.312 55.7822 153.812 56.7422 153.812 58.3822C153.812 60.0422 152.312 61.0022 150.492 61.0022C148.672 61.0022 147.172 60.0422 147.172 58.3822C147.172 56.7422 148.672 55.7822 150.492 55.7822ZM177.305 72.2422C175.605 72.2422 174.385 71.2422 174.385 69.5022C174.385 67.7622 175.605 66.7222 177.305 66.7222C179.025 66.7222 180.245 67.7622 180.245 69.5022C180.245 71.2422 179.025 72.2422 177.305 72.2422ZM177.305 65.9222C174.825 65.9222 173.085 67.3422 173.085 69.5022C173.085 71.7222 174.825 73.2022 177.305 73.2022C179.785 73.2022 181.525 71.7222 181.525 69.5022C181.525 67.3422 179.785 65.9222 177.305 65.9222ZM178.605 54.7222C179.305 54.9422 179.945 55.2822 180.325 55.7022V58.5222C179.265 58.5822 177.425 58.6222 176.685 58.6222C176.385 58.6222 176.045 58.6022 175.725 58.5822C175.925 58.2022 176.085 57.8222 176.225 57.4422L176.545 56.8822C176.585 56.8022 176.585 56.7222 176.505 56.6622C176.345 56.5622 175.945 56.3422 175.745 56.2622C175.645 56.2222 175.505 56.2222 175.425 56.2622L174.825 56.5822C173.845 56.6422 169.885 56.7022 169.145 56.7022C168.665 56.7022 168.005 56.6622 167.505 56.5822L167.385 56.8022C167.365 56.8622 167.385 56.9222 167.445 56.9822C167.845 57.2822 168.385 57.5822 168.885 57.7422C169.245 57.6222 169.945 57.4822 170.305 57.4622C170.865 57.4022 173.725 57.3422 174.765 57.3422C173.465 60.4422 170.565 63.8222 166.725 66.3822C166.665 66.4422 166.685 66.4822 166.725 66.5222L166.925 66.7622C166.965 66.7822 167.025 66.7822 167.105 66.7222C170.685 64.8622 173.785 61.9822 175.425 59.1222C175.745 59.3022 176.105 59.4822 176.485 59.6022C176.865 59.4622 177.365 59.3622 177.765 59.3222C178.285 59.2822 179.525 59.2622 180.325 59.3022V62.3422C179.265 62.4222 177.305 62.4622 176.545 62.4622C176.045 62.4622 175.445 62.4222 174.945 62.3422L174.845 62.5222C174.825 62.6022 174.845 62.6622 174.905 62.7022C175.305 62.9822 175.805 63.2622 176.365 63.4422C176.725 63.3022 177.245 63.2022 177.625 63.1622C178.205 63.1222 179.525 63.1022 180.325 63.1422V63.3222C180.325 64.0622 180.325 65.5222 180.405 66.2622H181.125C181.385 65.3822 181.545 63.8822 181.545 62.8822V56.0622L181.585 55.0422C181.585 54.8622 181.525 54.7222 181.365 54.6622C180.805 54.4622 179.625 54.2022 178.945 54.1822C178.805 54.1822 178.765 54.2022 178.725 54.2822L178.605 54.7222ZM200.961 67.4422C200.981 67.3622 200.981 67.2822 200.901 67.2422C200.761 67.1222 200.361 66.9422 200.161 66.8422C200.061 66.8022 199.941 66.8022 199.861 66.8422L199.261 67.1422C197.681 67.2222 194.361 67.2622 192.781 67.2822C192.261 67.1822 191.281 67.0822 190.721 67.0822C190.621 67.0822 190.581 67.1022 190.561 67.1822L190.461 67.5222C190.861 67.6622 191.241 67.8822 191.461 68.1022L191.861 72.3422C191.881 72.6622 191.941 73.0022 192.041 73.2422H192.721C192.821 73.0822 192.881 72.9222 192.921 72.7222L200.561 72.6222C200.681 72.5222 200.781 72.3022 200.781 72.0622C200.781 71.9622 200.741 71.8822 200.661 71.8422L200.301 71.7022C200.541 70.5222 200.701 69.2222 200.761 68.0822L200.961 67.4422ZM199.321 71.7022L198.921 71.8222C197.561 71.8822 194.661 71.9422 192.961 71.9422L192.801 68.0822C194.861 68.0222 197.321 67.9422 199.401 67.9622L199.321 71.7022ZM195.481 62.8222C195.481 60.9622 193.721 59.7022 191.521 59.7022C189.301 59.7022 187.561 60.9622 187.561 62.8222C187.561 64.7022 189.301 65.9622 191.521 65.9622C193.721 65.9622 195.481 64.7022 195.481 62.8222ZM188.801 62.8222C188.801 61.3622 190.021 60.4622 191.521 60.4622C193.021 60.4622 194.241 61.3622 194.241 62.8222C194.241 64.3022 193.021 65.1822 191.521 65.1822C190.021 65.1822 188.801 64.3022 188.801 62.8222ZM194.581 58.1022C193.701 58.1622 188.261 58.2422 187.421 58.2222C186.981 58.2222 186.201 58.1822 185.661 58.0822L185.541 58.3022C185.521 58.3622 185.541 58.4222 185.601 58.4822C186.001 58.7822 186.621 59.1222 187.161 59.3022C187.501 59.1622 188.241 59.0222 188.621 59.0022C189.361 58.9422 194.201 58.8622 195.001 58.8622C195.461 58.8622 196.401 58.8822 196.781 58.9422C196.941 58.8622 197.181 58.6022 197.181 58.2822C197.181 58.1822 197.101 58.0822 196.981 58.0422C196.601 57.9222 195.761 57.8222 195.181 57.8022L194.581 58.1022ZM188.641 55.6022C188.621 55.6422 188.621 55.6822 188.661 55.7622C189.001 56.1822 189.481 56.5822 189.881 56.8022C189.981 56.8622 190.061 56.8622 190.201 56.8622C191.061 56.7822 192.501 56.7622 193.501 56.7422C193.621 56.7422 193.701 56.7222 193.741 56.6222C193.821 56.5022 193.861 56.1822 193.801 56.0022C193.761 55.8822 193.701 55.8222 193.521 55.8222C192.181 55.8222 190.481 55.7622 188.781 55.4422L188.641 55.6022ZM195.541 61.1422C195.521 61.2022 195.541 61.2622 195.601 61.3222C195.981 61.6022 196.481 61.9022 197.021 62.0822C197.401 61.9222 197.921 61.8022 198.301 61.7622C198.561 61.7222 199.181 61.7022 199.641 61.7022V63.5622C199.641 64.3222 199.641 65.6422 199.721 66.2822H200.441C200.721 65.5622 200.861 64.3622 200.861 63.1222V56.0622L200.901 55.0422C200.901 54.8622 200.841 54.7222 200.681 54.6622C200.121 54.4622 198.941 54.2022 198.261 54.1822C198.121 54.1822 198.081 54.2022 198.041 54.2822L197.921 54.7222C198.621 54.9422 199.261 55.2822 199.641 55.7022V60.9422C198.861 61.0222 197.761 61.0622 197.221 61.0622C196.701 61.0622 196.101 61.0222 195.621 60.9422L195.541 61.1422ZM207.258 56.2222C207.238 56.2622 207.238 56.3022 207.278 56.3822C207.618 56.8022 208.118 57.2222 208.518 57.4222C208.638 57.4822 208.718 57.5022 208.878 57.5022C209.817 57.4222 211.438 57.3822 212.538 57.3822C212.658 57.3822 212.738 57.3622 212.798 57.2622C212.898 57.1222 212.918 56.7622 212.858 56.5822C212.838 56.4622 212.758 56.4222 212.578 56.4222C211.118 56.4222 209.238 56.3422 207.398 56.0422L207.258 56.2222ZM210.458 67.6422C208.938 67.6422 207.658 66.6622 207.658 65.0222C207.658 63.4022 208.938 62.4222 210.458 62.4222C211.958 62.4222 213.238 63.4022 213.238 65.0222C213.238 66.6622 211.958 67.6422 210.458 67.6422ZM210.458 61.5422C208.238 61.5422 206.398 62.9422 206.398 65.0222C206.398 67.1022 208.238 68.5222 210.458 68.5222C212.658 68.5222 214.497 67.1022 214.497 65.0222C214.497 62.9422 212.658 61.5422 210.458 61.5422ZM213.778 59.2222C212.878 59.2822 207.118 59.3622 206.298 59.3422C205.838 59.3422 205.078 59.2822 204.518 59.2022L204.398 59.4422C204.378 59.4822 204.378 59.5422 204.458 59.6022C204.858 59.9222 205.478 60.2622 206.018 60.4422C206.358 60.3222 207.098 60.1822 207.478 60.1622C208.218 60.1022 213.378 60.0022 214.198 60.0222C214.618 60.0222 215.558 60.0222 215.938 60.0822C216.098 60.0022 216.318 59.7422 216.318 59.4022C216.318 59.3022 216.238 59.2022 216.118 59.1622C215.738 59.0422 214.918 58.9422 214.378 58.9422L213.778 59.2222ZM220.478 63.2622L218.998 63.3222V56.0622L219.038 55.0422C219.038 54.8622 218.978 54.7222 218.818 54.6622C218.278 54.4622 217.078 54.2022 216.398 54.1822C216.258 54.1822 216.198 54.2022 216.178 54.2822L216.058 54.7022C216.758 54.9422 217.398 55.2822 217.778 55.7022V69.8622C217.778 70.7222 217.798 72.5022 217.858 73.3622H218.578C218.838 72.2622 218.998 70.5222 218.998 69.4022V64.0622L222.558 64.0222C222.658 64.0222 222.798 64.0022 222.898 63.9422C223.018 63.8622 223.138 63.6422 223.138 63.3022C223.138 63.1622 223.018 63.0422 222.878 63.0022C222.498 62.9222 221.698 62.8822 221.118 62.9022L220.478 63.2622ZM237.454 57.5822C237.454 59.9622 237.194 63.5822 236.754 66.2022C236.734 66.3222 236.774 66.4022 236.854 66.4222L237.194 66.4822C237.294 66.4822 237.374 66.4422 237.414 66.3422C238.234 63.8022 238.874 60.1422 238.914 57.7622L239.194 57.1422C239.234 57.0622 239.234 57.0022 239.154 56.9222C238.994 56.7822 238.614 56.5222 238.394 56.4222C238.294 56.3622 238.174 56.3622 238.074 56.4222L237.354 56.7422C235.734 56.8222 229.174 56.9222 228.094 56.9222C227.554 56.9222 226.794 56.8622 226.214 56.7422L226.094 56.9622C226.054 57.0222 226.074 57.1022 226.154 57.1622C226.574 57.5022 227.234 57.8422 227.814 58.0422C228.294 57.8822 229.214 57.7222 229.714 57.7022C230.734 57.6422 235.714 57.5622 237.454 57.5822ZM239.014 68.7222C238.334 68.7622 235.554 68.8222 232.714 68.8622L232.754 63.5622L232.854 62.7822C232.854 62.6422 232.814 62.5422 232.654 62.4822C232.154 62.3222 231.134 62.1822 230.514 62.1622C230.394 62.1622 230.354 62.2022 230.334 62.2622L230.214 62.6622C230.734 62.8222 231.214 63.0822 231.514 63.3422L231.554 68.8822C228.974 68.9022 226.614 68.9222 226.074 68.9222C225.474 68.9222 224.574 68.8422 223.934 68.7222L223.794 69.0022C223.774 69.0622 223.794 69.1022 223.854 69.1622C224.334 69.5422 225.034 69.9022 225.754 70.1222C226.214 69.9622 227.194 69.7822 227.694 69.7422C228.734 69.6822 238.074 69.5622 239.474 69.5822C240.074 69.5822 241.214 69.6222 241.734 69.6822C241.914 69.5822 242.134 69.3222 242.134 69.0222C242.134 68.8622 242.034 68.7622 241.874 68.7022C241.434 68.5622 240.414 68.4622 239.714 68.4422L239.014 68.7222ZM264.267 62.4022L262.787 62.4622V56.0622L262.827 55.0422C262.827 54.8622 262.767 54.7222 262.607 54.6622C262.067 54.4622 260.867 54.2022 260.187 54.1822C260.047 54.1822 259.987 54.2022 259.967 54.2822L259.847 54.7022C260.547 54.9422 261.187 55.2822 261.567 55.7022V65.0422C258.867 65.8222 254.627 66.4022 252.147 66.4622C251.887 66.4622 251.807 66.3622 251.807 66.1222V59.3222L251.827 58.3822C251.827 58.1822 251.747 58.0622 251.567 58.0222C251.067 57.9222 249.967 57.8622 249.307 57.8622C249.187 57.8622 249.127 57.8822 249.107 57.9622L249.027 58.4022C249.607 58.5422 250.187 58.7622 250.547 59.0022V65.7822C250.547 66.1822 250.567 66.4822 250.627 66.6622C250.827 67.2222 251.227 67.5622 251.827 67.5622C252.007 67.5622 252.227 67.5622 252.447 67.5422C255.007 67.3422 258.767 66.6622 261.567 65.7422V69.8622C261.567 70.7222 261.587 72.5022 261.647 73.3622H262.367C262.627 72.2622 262.787 70.5222 262.787 69.4022V63.2022L266.347 63.1622C266.447 63.1622 266.587 63.1422 266.687 63.0822C266.807 63.0022 266.927 62.7822 266.927 62.4422C266.927 62.3022 266.807 62.1822 266.667 62.1422C266.287 62.0622 265.487 62.0222 264.907 62.0422L264.267 62.4022ZM281.983 71.7822C280.823 71.8222 277.063 71.8622 275.763 71.8422C275.403 71.8422 275.263 71.6822 275.263 71.3222V68.5822L275.283 67.7422C275.283 67.5222 275.183 67.4222 275.003 67.3822C274.543 67.2822 273.463 67.2022 272.863 67.2022C272.743 67.2022 272.683 67.2422 272.663 67.3222L272.583 67.7222C273.123 67.8422 273.663 68.0222 273.983 68.2822V71.0822C273.983 72.1622 274.423 72.5822 275.663 72.5822L284.243 72.5422C284.323 72.5422 284.403 72.5222 284.463 72.4622C284.563 72.3622 284.663 72.1622 284.663 71.8222C284.663 71.7022 284.563 71.6022 284.423 71.5822C284.043 71.5022 283.183 71.4422 282.603 71.4422L281.983 71.7822ZM277.643 64.6022C277.743 64.5022 277.843 64.3022 277.843 64.0422C277.843 63.9622 277.803 63.8822 277.723 63.8422L277.383 63.7022C277.563 62.2422 277.703 60.5422 277.783 59.0222C278.083 59.2022 278.443 59.3822 278.803 59.5222C279.183 59.3822 279.683 59.2822 280.043 59.2422C280.443 59.2022 281.383 59.1822 282.023 59.2022V62.2422C281.123 62.2822 279.983 62.3022 279.443 62.3022C278.943 62.3022 278.403 62.2622 277.943 62.2022L277.843 62.4022C277.823 62.4622 277.843 62.5022 277.903 62.5822C278.263 62.8422 278.743 63.0822 279.243 63.2822C279.623 63.1422 280.103 63.0422 280.483 63.0022C280.803 62.9822 281.443 62.9622 282.023 62.9622V65.2222C282.023 66.1222 282.023 67.7022 282.103 68.5222H282.823C283.083 67.5622 283.243 66.1222 283.243 64.7622V56.0622L283.283 55.0422C283.283 54.8622 283.223 54.7222 283.063 54.6622C282.523 54.4622 281.323 54.2022 280.643 54.1822C280.503 54.1822 280.463 54.2022 280.443 54.2822L280.303 54.7222C281.023 54.9422 281.643 55.2822 282.023 55.7022V58.4622C281.103 58.5022 279.663 58.5422 279.023 58.5422C278.623 58.5422 278.203 58.5222 277.803 58.4822L277.823 57.8822L278.083 57.2822C278.123 57.1822 278.103 57.1222 278.043 57.0622C277.863 56.9222 277.443 56.7022 277.223 56.5822C277.143 56.5422 277.003 56.5422 276.923 56.5822L276.283 56.9622C274.963 57.0422 272.243 57.0822 270.903 57.0622C270.383 56.9622 269.283 56.8822 268.723 56.8822C268.603 56.8822 268.563 56.9022 268.543 56.9622L268.443 57.3622C268.843 57.4822 269.263 57.7222 269.483 57.9422L269.943 64.5822C269.963 64.9222 270.023 65.3222 270.083 65.6022H270.783C270.923 65.3422 270.983 65.0622 271.023 64.6822L277.643 64.6022ZM276.403 63.7422L276.063 63.8422C274.903 63.9022 272.463 63.9422 271.003 63.9222L270.863 57.8222C272.603 57.7622 274.743 57.7422 276.483 57.7422L276.403 63.7422ZM289.799 71.8822C289.439 73.5022 288.479 74.5622 287.039 75.4022L287.279 75.8822C289.079 75.0422 290.699 73.1222 290.699 70.9222C290.699 70.3822 290.639 70.0422 290.479 69.5822C290.119 69.2422 289.779 69.1222 289.459 69.1222C288.799 69.1222 288.439 69.6022 288.439 70.1622C288.439 70.6022 288.659 71.0022 289.099 71.3422L289.799 71.8822ZM17.0009 105.462L15.6409 105.502V101.062L15.6809 100.042C15.7009 99.8622 15.6209 99.7222 15.4609 99.6622C14.9209 99.4622 13.7409 99.2022 13.0609 99.1822C12.9009 99.1822 12.8609 99.2022 12.8409 99.2822L12.7009 99.7222C13.4209 99.9422 14.0609 100.282 14.4209 100.702V107.122C14.4209 107.862 14.4409 109.142 14.5009 109.782H15.2409C15.5009 109.102 15.6409 107.902 15.6409 106.702V106.262L19.0809 106.222C19.1809 106.222 19.3209 106.182 19.4209 106.142C19.5409 106.062 19.6609 105.842 19.6609 105.502C19.6609 105.362 19.5409 105.242 19.4009 105.202C19.0209 105.122 18.2209 105.082 17.6409 105.102L17.0009 105.462ZM14.6409 110.702C13.8809 110.742 12.6809 110.762 11.9609 110.742C11.5009 110.622 10.5609 110.542 10.0409 110.542C9.94094 110.542 9.90094 110.562 9.88094 110.642L9.78094 111.022C10.1809 111.142 10.5809 111.342 10.7609 111.542L11.0609 117.162C11.1009 117.462 11.1609 117.802 11.2209 118.022H11.7609C11.8809 117.842 11.9609 117.642 11.9809 117.382L15.8409 117.342C15.9409 117.262 16.0609 117.082 16.0609 116.842C16.0609 116.762 16.0209 116.702 15.9209 116.622L15.6809 116.482C15.8609 114.902 16.0009 113.082 16.0209 111.602L16.2409 110.962C16.2609 110.882 16.2609 110.822 16.1809 110.762C16.0609 110.642 15.7409 110.442 15.5609 110.342C15.4809 110.302 15.3609 110.302 15.2809 110.342L14.6409 110.702ZM14.7609 116.502L14.4209 116.602C13.8009 116.642 12.7409 116.642 12.0009 116.642L11.9609 111.482C12.8609 111.462 13.9609 111.442 14.8209 111.462L14.7609 116.502ZM10.3609 116.302C10.3409 116.242 10.3009 116.202 10.2209 116.222C9.02094 116.602 7.12094 116.902 5.82094 116.942C5.58094 116.942 5.50094 116.842 5.50094 116.642V114.382L9.24094 114.242C9.32094 114.162 9.42094 114.022 9.42094 113.842C9.42094 113.782 9.40094 113.742 9.32094 113.682L9.06094 113.502C9.16094 113.022 9.30094 112.002 9.32094 111.422L9.50094 110.962C9.54094 110.842 9.54094 110.782 9.48094 110.722C9.36094 110.642 9.08094 110.482 8.94094 110.422C8.84094 110.382 8.74094 110.382 8.66094 110.422L8.24094 110.602C7.60094 110.662 5.18094 110.722 4.64094 110.702C4.28094 110.702 3.78094 110.682 3.42094 110.602L3.28094 110.822C3.26094 110.882 3.28094 110.942 3.36094 111.022C3.66094 111.262 4.04094 111.502 4.46094 111.662C4.74094 111.562 5.18094 111.462 5.46094 111.442C5.84094 111.402 7.54094 111.382 8.14094 111.382C8.16094 111.822 8.16094 113.022 8.12094 113.502L7.90094 113.562C7.44094 113.622 6.12094 113.662 5.52094 113.682C5.10094 113.642 4.12094 113.622 3.70094 113.622C3.56094 113.622 3.52094 113.662 3.50094 113.722L3.44094 114.042C3.80094 114.142 4.12094 114.282 4.34094 114.462V116.422C4.34094 116.822 4.36094 117.102 4.42094 117.222C4.62094 117.682 4.96094 117.902 5.50094 117.922C5.64094 117.922 5.90094 117.882 6.06094 117.862C7.32094 117.742 9.14094 117.302 10.3609 116.722C10.4409 116.682 10.4609 116.642 10.4409 116.562L10.3609 116.302ZM10.9609 108.842C11.1009 108.962 11.3009 109.122 11.4009 109.122C11.5809 109.202 11.9009 109.062 11.9609 108.842C12.0009 108.722 11.9609 108.582 11.8409 108.342C11.6409 108.002 11.2009 107.382 10.8409 106.962L9.90094 106.622L7.34094 104.502C7.82094 103.722 8.20094 102.922 8.46094 102.142C8.48094 102.042 8.50094 101.882 8.50094 101.742C8.50094 101.582 8.44094 101.442 8.28094 101.362C7.92094 101.122 6.94094 100.702 6.28094 100.582C6.18094 100.562 6.10094 100.582 6.06094 100.642L5.86094 101.022C6.34094 101.302 6.82094 101.742 7.00094 102.122C6.18094 104.662 3.98094 107.582 1.12094 109.842C1.06094 109.902 1.04094 109.942 1.10094 110.022L1.26094 110.202C1.32094 110.242 1.38094 110.242 1.46094 110.182C3.74094 108.782 5.60094 107.022 6.90094 105.182L10.9609 108.842ZM25.2773 110.402C23.6173 110.402 22.3173 109.242 22.3173 107.262C22.3173 105.262 23.6173 104.102 25.2773 104.102C26.9573 104.102 28.2573 105.262 28.2573 107.262C28.2573 109.242 26.9573 110.402 25.2773 110.402ZM30.5973 101.122C31.1773 101.302 31.7373 101.602 32.0173 101.962V106.642C31.3573 106.682 30.5973 106.702 30.1773 106.702C29.9173 106.702 29.6573 106.682 29.4173 106.662C29.1573 104.542 27.4773 103.162 25.2773 103.162C22.8573 103.162 21.0573 104.822 21.0573 107.262C21.0573 109.722 22.8573 111.362 25.2773 111.362C27.6573 111.362 29.4173 109.762 29.4573 107.342C29.6173 107.442 29.7773 107.522 29.9573 107.602C30.2573 107.502 30.6973 107.402 31.0173 107.382C31.2373 107.362 31.6373 107.342 32.0173 107.342V113.602C32.0173 114.442 32.0373 116.062 32.1173 116.882H32.7973C33.0573 115.862 33.1973 114.222 33.1973 113.162V102.222L33.2573 101.382C33.2573 101.202 33.1973 101.102 33.0373 101.042C32.5773 100.822 31.5373 100.602 30.9573 100.582C30.8173 100.582 30.7573 100.622 30.7373 100.702L30.5973 101.122ZM33.8973 99.7022C34.5573 99.9222 35.1573 100.242 35.4773 100.642V115.062C35.4773 115.902 35.5173 117.582 35.5573 118.362H36.2773C36.5373 117.342 36.6973 115.682 36.6973 114.602V100.962L36.7373 100.022C36.7573 99.8422 36.6973 99.7222 36.4973 99.6422C36.0173 99.4422 34.8773 99.2022 34.2373 99.1822C34.1173 99.1822 34.0573 99.2022 34.0373 99.2822L33.8973 99.7022ZM52.93 109.562L50.57 106.962C51.13 105.882 51.53 104.802 51.73 103.742C51.75 103.642 51.77 103.482 51.77 103.342C51.77 103.142 51.69 103.042 51.55 102.962C51.15 102.722 50.21 102.402 49.49 102.262C49.37 102.242 49.33 102.282 49.29 102.342L49.07 102.762C49.59 103.022 50.07 103.402 50.27 103.702C49.73 106.482 47.89 109.822 45.35 112.442C45.27 112.542 45.27 112.602 45.31 112.642L45.51 112.802C45.57 112.862 45.65 112.862 45.73 112.782C47.59 111.282 49.09 109.542 50.15 107.762L53.49 111.742C53.59 111.902 53.77 112.062 53.87 112.082C54.07 112.162 54.39 112.042 54.51 111.822C54.55 111.722 54.55 111.562 54.45 111.322C54.31 110.962 53.97 110.342 53.69 109.922L52.93 109.562ZM58.37 99.7022C59.03 99.9222 59.63 100.242 59.95 100.642V107.282L57.15 107.362V102.182L57.19 101.342C57.19 101.182 57.13 101.062 56.99 101.002C56.53 100.802 55.49 100.582 54.89 100.562C54.77 100.562 54.69 100.602 54.67 100.662L54.55 101.082C55.13 101.262 55.67 101.582 55.97 101.922V113.622C55.97 114.462 55.99 116.082 56.05 116.902H56.75C56.99 115.882 57.15 114.242 57.15 113.182V108.162L59.95 108.082V115.062C59.95 115.902 59.99 117.582 60.03 118.362H60.75C61.01 117.342 61.17 115.682 61.17 114.602V100.962L61.21 100.022C61.23 99.8422 61.17 99.7222 60.97 99.6422C60.49 99.4422 59.35 99.2022 58.71 99.1822C58.59 99.1822 58.53 99.2022 58.51 99.2822L58.37 99.7022ZM79.3264 114.122C78.7264 114.162 76.4464 114.202 73.9464 114.242V110.502L79.3664 110.422C79.4464 110.422 79.5464 110.402 79.6064 110.322C79.6864 110.262 79.7864 110.062 79.7864 109.742C79.7864 109.622 79.6864 109.522 79.5664 109.502C79.1864 109.422 78.3064 109.362 77.7264 109.382L77.1664 109.682C75.8264 109.762 71.3464 109.822 69.6064 109.802C69.3464 109.802 69.2264 109.682 69.2264 109.422V106.242L78.3664 106.122C78.4664 106.042 78.5464 105.862 78.5464 105.662C78.5464 105.562 78.5264 105.522 78.4664 105.482L78.0664 105.322C78.2464 104.602 78.4664 103.062 78.5064 102.202L78.7264 101.662C78.7664 101.562 78.7664 101.462 78.6864 101.402C78.5264 101.302 78.1864 101.102 77.9864 101.002C77.8664 100.962 77.7464 100.962 77.6664 101.002L77.0064 101.322C75.4864 101.382 70.1264 101.442 69.0064 101.422C68.4664 101.422 67.6864 101.362 67.1464 101.262L67.0264 101.502C67.0064 101.562 67.0064 101.622 67.0864 101.682C67.5264 102.022 68.1064 102.322 68.7464 102.522C69.2464 102.362 70.0664 102.202 70.4264 102.182C71.3464 102.142 75.7664 102.082 77.0864 102.102C77.1264 102.782 77.0864 104.542 77.0064 105.282L76.6064 105.402C75.6864 105.442 70.7264 105.522 69.2664 105.522C68.7864 105.462 67.6064 105.422 67.0864 105.422C66.9664 105.422 66.9064 105.462 66.8864 105.522L66.8064 105.902C67.2464 105.982 67.6664 106.162 67.9464 106.362V109.242C67.9464 110.182 68.3064 110.542 69.3464 110.562H69.3664L72.7264 110.522V114.262C69.8264 114.302 66.9864 114.322 66.3864 114.322C65.7864 114.322 64.8864 114.242 64.2464 114.122L64.1064 114.382C64.0864 114.442 64.1064 114.502 64.1664 114.542C64.6464 114.922 65.3464 115.302 66.0664 115.502C66.5264 115.342 67.5064 115.162 68.0064 115.122C69.0464 115.062 78.3864 114.942 79.7864 114.962C80.3864 114.962 81.5264 115.002 82.0464 115.062C82.2264 114.982 82.4464 114.702 82.4464 114.402C82.4464 114.242 82.3464 114.142 82.1864 114.102C81.7464 113.962 80.7264 113.842 80.0264 113.822L79.3264 114.122ZM98.6428 109.062C97.2628 109.162 86.9028 109.282 85.7028 109.262C85.1028 109.262 84.2028 109.182 83.5628 109.062L83.4228 109.342C83.4028 109.402 83.4228 109.442 83.4828 109.502C83.9628 109.882 84.6628 110.242 85.3828 110.462C85.8428 110.302 86.8228 110.122 87.3228 110.082C87.7828 110.062 89.8428 110.022 92.1428 109.982V111.802C92.1428 112.622 92.1828 114.062 92.2428 114.862H93.0028C93.2228 113.922 93.3828 112.382 93.3828 111.462V109.962C95.9228 109.942 98.4228 109.922 99.1028 109.922C99.7028 109.922 100.843 109.962 101.363 110.022C101.543 109.942 101.763 109.662 101.763 109.362C101.763 109.202 101.663 109.102 101.503 109.062C101.063 108.902 100.043 108.802 99.3428 108.782L98.6428 109.062ZM96.0428 116.862C94.8228 116.922 90.9828 116.942 89.6228 116.922C89.2428 116.922 89.1228 116.762 89.1228 116.402V113.782L89.1628 112.922C89.1628 112.702 89.0628 112.602 88.8628 112.562C88.4028 112.442 87.3228 112.382 86.7028 112.382C86.5828 112.382 86.5428 112.402 86.5228 112.502L86.4228 112.902C86.9628 113.002 87.5028 113.222 87.8428 113.462V116.162C87.8428 117.222 88.2628 117.682 89.5228 117.682L98.2628 117.642C98.3628 117.642 98.4428 117.602 98.5028 117.542C98.6028 117.462 98.7028 117.242 98.7028 116.922C98.7028 116.782 98.6028 116.702 98.4628 116.662C98.1028 116.582 97.2228 116.522 96.6428 116.522L96.0428 116.862ZM92.5228 107.682C95.1628 107.682 97.1628 106.202 97.1628 103.982C97.1628 101.722 95.1628 100.242 92.5228 100.242C89.8828 100.242 87.8828 101.722 87.8828 103.982C87.8828 106.202 89.8828 107.682 92.5228 107.682ZM92.5228 101.102C94.4228 101.102 95.9028 102.142 95.9028 103.982C95.9028 105.802 94.4228 106.842 92.5228 106.842C90.6428 106.842 89.1428 105.802 89.1428 103.982C89.1428 102.142 90.6428 101.102 92.5228 101.102ZM116.315 102.702C115.155 102.762 111.215 102.822 110.475 102.822C109.995 102.822 109.295 102.782 108.815 102.702L108.675 102.962C108.675 103.002 108.675 103.062 108.735 103.102C109.155 103.402 109.695 103.702 110.215 103.882C110.595 103.742 111.295 103.602 111.675 103.582C112.255 103.522 115.135 103.462 116.295 103.482C115.055 106.802 112.215 110.502 108.315 113.362C108.255 113.422 108.275 113.462 108.335 113.502L108.555 113.702C108.595 113.742 108.635 113.742 108.715 113.682C113.095 111.202 116.715 107.142 117.775 103.582L118.115 103.042C118.155 102.942 118.155 102.862 118.095 102.802C117.915 102.682 117.475 102.482 117.275 102.382C117.175 102.342 117.055 102.342 116.955 102.382L116.315 102.702ZM123.895 107.862L122.415 107.922V101.062L122.455 100.042C122.455 99.8622 122.395 99.7222 122.235 99.6622C121.695 99.4622 120.495 99.2022 119.815 99.1822C119.675 99.1822 119.615 99.2022 119.595 99.2822L119.475 99.7022C120.175 99.9422 120.815 100.282 121.195 100.702V114.862C121.195 115.722 121.215 117.502 121.275 118.362H121.995C122.255 117.262 122.415 115.522 122.415 114.402V108.662L125.975 108.622C126.075 108.622 126.215 108.602 126.315 108.542C126.435 108.462 126.555 108.242 126.555 107.902C126.555 107.762 126.435 107.642 126.295 107.602C125.915 107.522 125.115 107.482 124.535 107.502L123.895 107.862ZM130.672 101.702C130.652 101.762 130.652 101.802 130.692 101.862C131.032 102.282 131.532 102.682 131.932 102.902C132.052 102.962 132.112 102.982 132.292 102.982C133.152 102.902 134.632 102.862 135.652 102.862C135.752 102.862 135.852 102.842 135.912 102.742C135.992 102.602 136.032 102.242 135.972 102.082C135.952 101.942 135.852 101.902 135.692 101.902C134.312 101.882 132.552 101.842 130.812 101.542L130.672 101.702ZM137.352 111.162L135.092 109.362C136.252 108.122 137.172 106.842 137.752 105.582L138.152 105.042C138.212 104.962 138.192 104.842 138.132 104.802C137.952 104.702 137.532 104.502 137.312 104.422C137.192 104.382 137.072 104.382 136.992 104.422L136.372 104.742C135.452 104.802 131.252 104.882 130.452 104.862C129.952 104.862 129.252 104.822 128.732 104.742L128.632 104.942C128.612 105.002 128.632 105.082 128.692 105.122C129.112 105.442 129.672 105.742 130.192 105.922C130.572 105.782 131.352 105.642 131.752 105.622C132.352 105.562 135.152 105.502 136.232 105.502C134.772 108.382 131.872 111.502 128.132 113.882C128.072 113.942 128.092 114.002 128.132 114.042L128.332 114.222C128.372 114.262 128.412 114.262 128.492 114.202C130.712 113.102 132.812 111.602 134.492 109.962L138.272 113.362C138.392 113.482 138.592 113.642 138.692 113.662C138.912 113.742 139.232 113.602 139.292 113.382C139.352 113.282 139.312 113.122 139.172 112.882C138.992 112.522 138.572 111.882 138.232 111.482L137.352 111.162ZM139.792 99.7022C140.512 99.9422 141.152 100.282 141.512 100.702V114.862C141.512 115.722 141.552 117.502 141.592 118.362H142.332C142.572 117.262 142.732 115.522 142.732 114.402V101.062L142.792 100.042C142.792 99.8622 142.732 99.7222 142.552 99.6622C142.012 99.4622 140.812 99.2022 140.132 99.1822C139.992 99.1822 139.952 99.2022 139.932 99.2822L139.792 99.7022ZM154.948 102.702C153.788 102.762 149.848 102.822 149.108 102.822C148.628 102.822 147.928 102.782 147.448 102.702L147.308 102.962C147.308 103.002 147.308 103.062 147.368 103.102C147.788 103.402 148.328 103.702 148.848 103.882C149.228 103.742 149.928 103.602 150.308 103.582C150.888 103.522 153.768 103.462 154.928 103.482C153.688 106.802 150.848 110.502 146.948 113.362C146.888 113.422 146.908 113.462 146.968 113.502L147.188 113.702C147.228 113.742 147.268 113.742 147.348 113.682C151.728 111.202 155.348 107.142 156.408 103.582L156.748 103.042C156.788 102.942 156.788 102.862 156.728 102.802C156.548 102.682 156.108 102.482 155.908 102.382C155.808 102.342 155.688 102.342 155.588 102.382L154.948 102.702ZM162.528 107.862L161.048 107.922V101.062L161.088 100.042C161.088 99.8622 161.028 99.7222 160.868 99.6622C160.328 99.4622 159.128 99.2022 158.448 99.1822C158.308 99.1822 158.248 99.2022 158.228 99.2822L158.108 99.7022C158.808 99.9422 159.448 100.282 159.828 100.702V114.862C159.828 115.722 159.848 117.502 159.908 118.362H160.628C160.888 117.262 161.048 115.522 161.048 114.402V108.662L164.608 108.622C164.708 108.622 164.848 108.602 164.948 108.542C165.068 108.462 165.188 108.242 165.188 107.902C165.188 107.762 165.068 107.642 164.928 107.602C164.548 107.522 163.748 107.482 163.168 107.502L162.528 107.862ZM179.421 102.702C178.261 102.762 174.321 102.822 173.581 102.822C173.101 102.822 172.401 102.782 171.921 102.702L171.781 102.962C171.781 103.002 171.781 103.062 171.841 103.102C172.261 103.402 172.801 103.702 173.321 103.882C173.701 103.742 174.401 103.602 174.781 103.582C175.361 103.522 178.241 103.462 179.401 103.482C178.161 106.802 175.321 110.502 171.421 113.362C171.361 113.422 171.381 113.462 171.441 113.502L171.661 113.702C171.701 113.742 171.741 113.742 171.821 113.682C176.201 111.202 179.821 107.142 180.881 103.582L181.221 103.042C181.261 102.942 181.261 102.862 181.201 102.802C181.021 102.682 180.581 102.482 180.381 102.382C180.281 102.342 180.161 102.342 180.061 102.382L179.421 102.702ZM187.001 107.862L185.521 107.922V101.062L185.561 100.042C185.561 99.8622 185.501 99.7222 185.341 99.6622C184.801 99.4622 183.601 99.2022 182.921 99.1822C182.781 99.1822 182.721 99.2022 182.701 99.2822L182.581 99.7022C183.281 99.9422 183.921 100.282 184.301 100.702V114.862C184.301 115.722 184.321 117.502 184.381 118.362H185.101C185.361 117.262 185.521 115.522 185.521 114.402V108.662L189.081 108.622C189.181 108.622 189.321 108.602 189.421 108.542C189.541 108.462 189.661 108.242 189.661 107.902C189.661 107.762 189.541 107.642 189.401 107.602C189.021 107.522 188.221 107.482 187.641 107.502L187.001 107.862ZM205.537 108.922C204.157 109.002 193.797 109.142 192.597 109.122C191.997 109.122 191.097 109.042 190.457 108.922L190.317 109.182C190.297 109.242 190.317 109.302 190.377 109.342C190.857 109.722 191.557 110.102 192.277 110.302C192.737 110.142 193.717 109.962 194.217 109.922C195.257 109.862 204.597 109.742 205.997 109.762C206.597 109.762 207.737 109.802 208.257 109.862C208.437 109.782 208.657 109.522 208.657 109.202C208.657 109.062 208.557 108.942 208.397 108.902C207.957 108.762 206.937 108.642 206.237 108.622L205.537 108.922ZM203.357 112.082C202.037 112.142 196.357 112.222 195.397 112.222C194.857 112.222 194.097 112.162 193.517 112.042L193.377 112.302C193.357 112.362 193.377 112.422 193.437 112.482C193.897 112.822 194.517 113.142 195.117 113.342C195.557 113.162 196.397 113.022 196.857 113.002C197.697 112.942 201.957 112.902 203.397 112.922V115.962C203.397 116.662 203.417 117.842 203.497 118.542H204.277C204.477 117.782 204.617 116.462 204.617 115.642L204.657 113.062L204.877 112.482C204.917 112.382 204.917 112.322 204.857 112.262C204.717 112.162 204.377 111.922 204.177 111.842C204.077 111.802 203.957 111.802 203.897 111.842L203.357 112.082ZM194.417 105.222C194.417 106.262 194.877 106.742 196.117 106.722L204.957 106.582C205.037 106.582 205.117 106.562 205.177 106.502C205.257 106.422 205.337 106.222 205.337 105.942C205.337 105.782 205.257 105.722 205.117 105.702C204.737 105.622 203.857 105.562 203.277 105.562L202.697 105.882C201.517 105.962 197.477 106.022 196.137 106.002C195.797 106.002 195.677 105.882 195.677 105.522V101.602L204.637 101.502C204.757 101.502 204.837 101.482 204.917 101.402C205.017 101.302 205.097 101.082 205.097 100.822C205.097 100.682 205.017 100.582 204.857 100.562C204.437 100.502 203.597 100.442 203.077 100.462L202.497 100.742C201.417 100.802 197.277 100.862 195.717 100.842C195.197 100.742 193.997 100.682 193.457 100.682C193.337 100.682 193.277 100.722 193.257 100.782L193.157 101.182C193.657 101.302 194.117 101.482 194.417 101.722V105.222ZM212.594 101.522C212.574 101.562 212.574 101.602 212.614 101.662C212.954 102.082 213.454 102.482 213.854 102.702C213.974 102.762 214.034 102.782 214.214 102.782C215.074 102.702 216.554 102.662 217.574 102.662C217.674 102.662 217.774 102.642 217.834 102.542C217.914 102.402 217.954 102.062 217.894 101.882C217.874 101.742 217.774 101.702 217.614 101.702C216.234 101.702 214.474 101.642 212.714 101.342L212.594 101.522ZM219.054 110.942L216.834 109.102C217.974 107.882 218.874 106.622 219.454 105.382L219.834 104.842C219.894 104.762 219.894 104.642 219.814 104.602C219.634 104.502 219.214 104.302 218.994 104.222C218.894 104.182 218.754 104.182 218.674 104.222L218.054 104.542C217.154 104.602 212.954 104.682 212.154 104.662C211.654 104.662 210.954 104.622 210.454 104.542L210.334 104.742C210.314 104.802 210.334 104.862 210.394 104.922C210.814 105.242 211.374 105.542 211.894 105.722C212.274 105.582 213.054 105.442 213.454 105.422C214.054 105.362 216.874 105.302 217.934 105.302C216.474 108.182 213.574 111.302 209.854 113.682C209.794 113.742 209.794 113.802 209.854 113.842L210.034 114.022C210.074 114.042 210.114 114.042 210.194 114.002C212.454 112.882 214.554 111.362 216.254 109.702L220.034 113.162C220.174 113.282 220.354 113.422 220.454 113.462C220.674 113.502 220.954 113.362 221.034 113.162C221.074 113.042 221.034 112.882 220.914 112.662C220.714 112.302 220.314 111.682 219.974 111.242L219.054 110.942ZM225.634 107.842L224.154 107.902V101.062L224.194 100.042C224.194 99.8622 224.134 99.7222 223.974 99.6622C223.434 99.4622 222.234 99.2022 221.554 99.1822C221.414 99.1822 221.354 99.2022 221.334 99.2822L221.214 99.7022C221.914 99.9422 222.554 100.282 222.934 100.702V114.862C222.934 115.722 222.954 117.502 223.014 118.362H223.734C223.994 117.262 224.154 115.522 224.154 114.402V108.642L227.714 108.602C227.814 108.602 227.954 108.582 228.054 108.522C228.174 108.442 228.294 108.222 228.294 107.882C228.294 107.742 228.174 107.622 228.034 107.582C227.654 107.502 226.854 107.462 226.274 107.482L225.634 107.842ZM242.53 99.7022C243.19 99.9222 243.79 100.242 244.11 100.642V115.062C244.11 115.902 244.15 117.582 244.19 118.362H244.91C245.17 117.342 245.33 115.682 245.33 114.602V100.962L245.37 100.022C245.39 99.8422 245.33 99.7222 245.13 99.6422C244.65 99.4422 243.51 99.2022 242.87 99.1822C242.75 99.1822 242.69 99.2022 242.67 99.2822L242.53 99.7022ZM238.91 101.122C239.49 101.322 240.05 101.622 240.33 101.962V107.182C239.29 107.242 237.61 107.282 236.93 107.282C236.71 107.282 236.47 107.282 236.23 107.262C236.95 106.102 237.47 104.922 237.73 103.822L238.09 103.222C238.13 103.142 238.13 103.082 238.05 103.022C237.91 102.902 237.51 102.702 237.31 102.642C237.23 102.602 237.09 102.602 237.01 102.642L236.41 102.962C235.45 103.022 232.17 103.082 231.51 103.062C231.07 103.062 230.43 103.042 229.99 102.982L229.87 103.182C229.85 103.242 229.85 103.282 229.91 103.342C230.29 103.622 230.81 103.922 231.27 104.102C231.61 103.982 232.29 103.842 232.63 103.822C233.11 103.782 235.43 103.722 236.35 103.742C235.35 106.922 232.87 110.602 229.47 113.422C229.41 113.502 229.43 113.542 229.47 113.582L229.69 113.762C229.73 113.782 229.77 113.762 229.85 113.722C232.23 112.202 234.33 110.102 235.81 107.922C236.09 108.082 236.39 108.242 236.71 108.362C237.09 108.202 237.63 108.082 238.01 108.042C238.47 107.982 239.57 107.922 240.33 107.922V113.622C240.33 114.442 240.35 116.062 240.43 116.882H241.11C241.37 115.882 241.51 114.222 241.51 113.162V102.242L241.57 101.382C241.57 101.222 241.49 101.102 241.35 101.042C240.89 100.842 239.85 100.622 239.25 100.602C239.13 100.602 239.07 100.642 239.05 100.702L238.91 101.122ZM267.663 116.962C266.463 117.022 262.543 117.042 261.143 117.022C260.783 117.022 260.643 116.882 260.643 116.502V114.242L260.663 113.402C260.663 113.182 260.563 113.082 260.383 113.042C259.923 112.922 258.863 112.862 258.243 112.862C258.123 112.862 258.063 112.902 258.043 112.982L257.963 113.382C258.503 113.502 259.043 113.682 259.363 113.922V116.282C259.363 117.342 259.803 117.782 261.063 117.782L269.843 117.722C269.943 117.722 270.023 117.702 270.103 117.622C270.183 117.562 270.283 117.342 270.283 117.022C270.283 116.882 270.203 116.802 270.043 116.782C269.703 116.682 268.843 116.622 268.283 116.622L267.663 116.962ZM267.883 110.342C267.883 111.242 267.903 112.822 267.983 113.642H268.703C268.963 112.682 269.123 111.242 269.123 109.882V101.062L269.163 100.042C269.163 99.8622 269.103 99.7222 268.923 99.6622C268.383 99.4622 267.203 99.2022 266.523 99.1822C266.383 99.1822 266.323 99.2022 266.303 99.2822L266.183 99.7222C266.883 99.9422 267.523 100.282 267.883 100.702V109.262C266.183 109.562 263.623 109.862 261.183 110.062V107.322L264.923 107.222C265.003 107.222 265.103 107.182 265.143 107.142C265.223 107.062 265.323 106.862 265.323 106.602C265.323 106.482 265.223 106.382 265.103 106.362C264.743 106.302 263.983 106.262 263.483 106.282L262.943 106.522C262.103 106.602 259.103 106.682 258.083 106.682C257.743 106.682 257.623 106.562 257.623 106.202V102.342L264.663 102.242C264.763 102.242 264.863 102.222 264.923 102.142C265.003 102.062 265.103 101.842 265.103 101.602C265.103 101.462 265.023 101.362 264.883 101.342C264.463 101.282 263.683 101.242 263.183 101.262L262.603 101.522C261.823 101.562 258.763 101.602 257.663 101.602C257.183 101.502 256.043 101.422 255.523 101.422C255.403 101.422 255.343 101.462 255.323 101.542L255.223 101.942C255.683 102.062 256.103 102.242 256.383 102.482V105.902C256.383 106.942 256.823 107.422 258.003 107.402L259.983 107.342V110.162C258.463 110.282 257.043 110.362 255.983 110.382C255.343 110.382 254.523 110.322 253.863 110.202L253.763 110.422C253.743 110.502 253.743 110.562 253.823 110.622C254.343 111.022 255.063 111.422 255.743 111.682C256.063 111.562 256.903 111.382 257.243 111.342C260.023 111.162 265.283 110.482 267.883 109.922V110.342ZM288.739 107.582L287.259 107.642V101.062L287.299 100.042C287.299 99.8622 287.239 99.7222 287.079 99.6622C286.539 99.4622 285.339 99.2022 284.659 99.1822C284.519 99.1822 284.459 99.2022 284.439 99.2822L284.319 99.7022C285.019 99.9422 285.659 100.282 286.039 100.702V110.302C283.279 111.122 278.939 111.682 276.359 111.742C276.099 111.762 276.019 111.662 276.019 111.422V103.762L282.459 103.582C282.539 103.582 282.639 103.542 282.679 103.482C282.759 103.382 282.839 103.162 282.839 102.882C282.839 102.762 282.759 102.662 282.619 102.642C282.239 102.562 281.459 102.522 280.999 102.522L280.459 102.822C279.799 102.882 277.059 102.982 276.059 102.982C275.519 102.882 274.239 102.782 273.699 102.782C273.579 102.782 273.519 102.842 273.499 102.902L273.399 103.302C273.919 103.402 274.419 103.602 274.739 103.862V111.082C274.739 111.482 274.759 111.782 274.819 111.962C275.019 112.522 275.419 112.862 275.999 112.862C276.199 112.862 276.399 112.862 276.639 112.842C279.299 112.642 283.159 111.962 286.039 111.002V114.862C286.039 115.722 286.059 117.502 286.119 118.362H286.839C287.099 117.262 287.259 115.522 287.259 114.402V108.402L290.819 108.342C290.919 108.342 291.059 108.322 291.159 108.262C291.279 108.202 291.399 107.962 291.399 107.622C291.399 107.482 291.279 107.362 291.139 107.322C290.759 107.242 289.959 107.202 289.379 107.222L288.739 107.582ZM294.756 116.482C295.436 116.482 295.956 115.942 295.956 115.322C295.956 114.642 295.436 114.122 294.756 114.122C294.096 114.122 293.576 114.642 293.576 115.322C293.576 115.942 294.096 116.482 294.756 116.482Z" fill="black"/>
<path fill-rule="evenodd" clip-rule="evenodd" d="M282 8.54746C282 7.15909 283.119 6.03357 284.5 6.03357C285.052 6.03357 285.5 5.58336 285.5 5.02802C285.5 4.47267 285.052 4.02246 284.5 4.02246C282.015 4.02246 280 6.04838 280 8.54746V11.8155V12.5697V13.3238C280 14.8511 281.231 16.0891 282.75 16.0891H284.25C285.769 16.0891 287 14.8511 287 13.3238V11.8155C287 10.2883 285.769 9.05024 284.25 9.05024H282.75C282.49 9.05024 282.238 9.08651 282 9.15434V8.54746Z" fill="#C8C8C8"/>
<path fill-rule="evenodd" clip-rule="evenodd" d="M291 8.54746C291 7.15909 292.119 6.03357 293.5 6.03357C294.052 6.03357 294.5 5.58336 294.5 5.02802C294.5 4.47267 294.052 4.02246 293.5 4.02246C291.015 4.02246 289 6.04838 289 8.54746V11.8155V12.5697V13.3238C289 14.8511 290.231 16.0891 291.75 16.0891H293.25C294.769 16.0891 296 14.8511 296 13.3238V11.8155C296 10.2883 294.769 9.05024 293.25 9.05024H291.75C291.49 9.05024 291.238 9.08651 291 9.15434V8.54746Z" fill="#C8C8C8"/>
<path fill-rule="evenodd" clip-rule="evenodd" d="M294 172.453C294 173.841 292.881 174.966 291.5 174.966C290.948 174.966 290.5 175.417 290.5 175.972C290.5 176.527 290.948 176.978 291.5 176.978C293.985 176.978 296 174.952 296 172.453L296 169.184L296 168.43L296 167.676C296 166.149 294.769 164.911 293.25 164.911L291.75 164.911C290.231 164.911 289 166.149 289 167.676L289 169.184C289 170.712 290.231 171.95 291.75 171.95L293.25 171.95C293.51 171.95 293.762 171.913 294 171.846L294 172.453Z" fill="#C8C8C8"/>
<path fill-rule="evenodd" clip-rule="evenodd" d="M285 172.453C285 173.841 283.881 174.966 282.5 174.966C281.948 174.966 281.5 175.417 281.5 175.972C281.5 176.527 281.948 176.978 282.5 176.978C284.985 176.978 287 174.952 287 172.453L287 169.184L287 168.43L287 167.676C287 166.149 285.769 164.911 284.25 164.911L282.75 164.911C281.231 164.911 280 166.149 280 167.676L280 169.184C280 170.712 281.231 171.95 282.75 171.95L284.25 171.95C284.51 171.95 284.762 171.913 285 171.846L285 172.453Z" fill="#C8C8C8"/>
</svg>
